<?xml version="1.0" encoding="UTF-8" standalone="no"?>
<!-- Created with Inkscape (http://www.inkscape.org/) -->

<svg
   version="1.1"
   id="svg2"
   width="666.66669"
   height="666.66669"
   viewBox="0 0 666.66669 666.66669"
   sodipodi:docname="2717005.eps"
   xmlns:inkscape="http://www.inkscape.org/namespaces/inkscape"
   xmlns:sodipodi="http://sodipodi.sourceforge.net/DTD/sodipodi-0.dtd"
   xmlns="http://www.w3.org/2000/svg"
   xmlns:svg="http://www.w3.org/2000/svg">
  <defs
     id="defs6" />
  <sodipodi:namedview
     id="namedview4"
     pagecolor="#ffffff"
     bordercolor="#000000"
     borderopacity="0.25"
     inkscape:showpageshadow="2"
     inkscape:pageopacity="0.0"
     inkscape:pagecheckerboard="0"
     inkscape:deskcolor="#d1d1d1" />
  <g
     id="g8"
     inkscape:groupmode="layer"
     inkscape:label="ink_ext_XXXXXX"
     transform="matrix(1.3333333,0,0,-1.3333333,0,666.66667)">
    <g
       id="g10"
       transform="scale(0.1)">
      <path
         d="M 0,0 H 5000 V 5000 H 0 Z"
         style="fill:#ffffff;fill-opacity:1;fill-rule:nonzero;stroke:none"
         id="path12" />
      <path
         d="m 2219.17,3180.28 c -151.32,548.93 -833.21,725.76 -1223.994,315.52 -5.61,-5.9 -11.215,-11.88 -16.821,-17.97 C 418.102,2868.81 682.773,1368.01 1852,987.629 3021.23,607.242 4237.38,1301.86 4305.71,1922.8 c 68.32,620.95 -471.1,816.06 -1308.23,642.43 -472.96,-98.1 -684.11,273.33 -778.31,615.05"
         style="fill:#bcd3ef;fill-opacity:1;fill-rule:nonzero;stroke:none"
         id="path14" />
      <path
         d="m 748.902,1882.3 c -94.769,127.05 -237.742,101.57 -269.25,-50.96 -10.414,-50.41 -8.058,-113.46 17.457,-191.74 97.215,-298.19 294.422,-380.7 394.676,-188.78 61.875,118.46 -48.965,305.59 -142.883,431.48"
         style="fill:#bcd3ef;fill-opacity:1;fill-rule:nonzero;stroke:none"
         id="path16" />
      <path
         d="m 4366.04,1868.59 c -5.76,-113.28 96.22,-178.8 193.56,-121.94 32.18,18.8 62.84,50.67 86.86,102.56 91.47,197.67 10.78,345.15 -149.44,306.62 -98.89,-23.77 -125.27,-174.97 -130.98,-287.24"
         style="fill:#bcd3ef;fill-opacity:1;fill-rule:nonzero;stroke:none"
         id="path18" />
      <path
         d="m 563.129,2811.05 c -16.566,-75 -94.906,-99.48 -148.266,-44.88 -17.633,18.04 -31.937,44.36 -38.3,82.55 -24.254,145.48 54.898,227.29 152.593,173.38 60.297,-33.27 50.391,-136.72 33.973,-211.05"
         style="fill:#bcd3ef;fill-opacity:1;fill-rule:nonzero;stroke:none"
         id="path20" />
      <path
         d="m 3220.42,3717.18 c 0,-12.39 -5.05,-23.69 -13.27,-31.86 -8.13,-8.23 -19.42,-13.27 -31.81,-13.27 h -964.75 c -24.77,0 -45.08,20.3 -45.08,45.13 0,12.39 5.05,23.68 13.28,31.85 8.12,8.23 19.41,13.27 31.8,13.27 h 45.6 c 18.01,41.86 59.6,71.11 108.01,71.11 32.59,0 62.05,-13.27 83.39,-34.66 28.42,48.19 80.84,80.57 140.86,80.57 16.49,0 32.37,-2.5 47.36,-7.03 31.4,59.03 93.44,99.22 164.96,99.22 85.89,0 158.14,-57.99 179.95,-136.91 15.82,7.92 33.67,12.45 52.62,12.45 53.56,0 98.75,-35.76 112.96,-84.75 h 29.04 c 24.78,0 45.08,-20.3 45.08,-45.12"
         style="fill:#bcd3ef;fill-opacity:1;fill-rule:nonzero;stroke:none"
         id="path22" />
      <path
         d="m 3796.62,2921.2 c 0,-11.62 -4.74,-22.23 -12.45,-29.89 -7.63,-7.72 -18.22,-12.46 -29.84,-12.46 h -905.24 c -23.25,0 -42.29,19.06 -42.29,42.35 0,11.63 4.73,22.22 12.45,29.89 7.62,7.72 18.22,12.45 29.84,12.45 h 42.79 c 16.9,39.27 55.92,66.72 101.34,66.72 30.58,0 58.23,-12.45 78.25,-32.53 26.66,45.23 75.85,75.61 132.16,75.61 15.49,0 30.38,-2.34 44.45,-6.59 29.45,55.38 87.67,93.09 154.78,93.09 80.59,0 148.38,-54.41 168.85,-128.45 14.84,7.42 31.59,11.67 49.37,11.67 50.26,0 92.66,-33.55 105.99,-79.52 h 27.26 c 23.24,0 42.29,-19.04 42.29,-42.34"
         style="fill:#bcd3ef;fill-opacity:1;fill-rule:nonzero;stroke:none"
         id="path24" />
      <path
         d="m 4021.66,3715.71 c -24.08,0 -43.66,-19.59 -43.66,-43.66 0,-24.08 19.58,-43.67 43.66,-43.67 24.07,0 43.65,19.59 43.65,43.67 0,24.07 -19.58,43.66 -43.65,43.66 z m 0,-107.28 c -35.09,0 -63.62,28.53 -63.62,63.62 0,35.07 28.53,63.61 63.62,63.61 35.08,0 63.61,-28.54 63.61,-63.61 0,-35.09 -28.53,-63.62 -63.61,-63.62"
         style="fill:#3e6ca7;fill-opacity:1;fill-rule:nonzero;stroke:none"
         id="path26" />
      <path
         d="m 4250.68,3492.51 c -24.08,0 -43.66,-19.58 -43.66,-43.66 0,-24.07 19.58,-43.66 43.66,-43.66 24.08,0 43.66,19.59 43.66,43.66 0,24.08 -19.58,43.66 -43.66,43.66 z m 0,-107.28 c -35.07,0 -63.62,28.54 -63.62,63.62 0,35.08 28.55,63.62 63.62,63.62 35.08,0 63.62,-28.54 63.62,-63.62 0,-35.08 -28.54,-63.62 -63.62,-63.62"
         style="fill:#f2526a;fill-opacity:1;fill-rule:nonzero;stroke:none"
         id="path28" />
      <path
         d="m 4329.29,3178.5 c -5.52,0 -9.98,4.47 -9.98,9.98 v 44.01 c 0,5.51 4.46,9.98 9.98,9.98 5.5,0 9.97,-4.47 9.97,-9.98 v -44.01 c 0,-5.51 -4.47,-9.98 -9.97,-9.98"
         style="fill:#3e6ca7;fill-opacity:1;fill-rule:nonzero;stroke:none"
         id="path30" />
      <path
         d="m 4329.29,3101.48 c -5.52,0 -9.98,4.47 -9.98,9.98 v 44.01 c 0,5.51 4.46,9.98 9.98,9.98 5.5,0 9.97,-4.47 9.97,-9.98 v -44.01 c 0,-5.51 -4.47,-9.98 -9.97,-9.98"
         style="fill:#3e6ca7;fill-opacity:1;fill-rule:nonzero;stroke:none"
         id="path32" />
      <path
         d="m 4391.05,3162 h -39.53 c -5.5,0 -9.98,4.46 -9.98,9.98 0,5.51 4.48,9.97 9.98,9.97 h 39.53 c 5.51,0 9.99,-4.46 9.99,-9.97 0,-5.52 -4.48,-9.98 -9.99,-9.98"
         style="fill:#3e6ca7;fill-opacity:1;fill-rule:nonzero;stroke:none"
         id="path34" />
      <path
         d="m 4307.04,3162 h -39.53 c -5.51,0 -9.98,4.46 -9.98,9.98 0,5.51 4.47,9.97 9.98,9.97 h 39.53 c 5.52,0 9.98,-4.46 9.98,-9.97 0,-5.52 -4.46,-9.98 -9.98,-9.98"
         style="fill:#3e6ca7;fill-opacity:1;fill-rule:nonzero;stroke:none"
         id="path36" />
      <path
         d="m 3978,3425.1 c -5.52,0 -9.98,4.47 -9.98,9.98 v 44.01 c 0,5.51 4.46,9.98 9.98,9.98 5.51,0 9.98,-4.47 9.98,-9.98 v -44.01 c 0,-5.51 -4.47,-9.98 -9.98,-9.98"
         style="fill:#324f89;fill-opacity:1;fill-rule:nonzero;stroke:none"
         id="path38" />
      <path
         d="m 3978,3348.08 c -5.52,0 -9.98,4.47 -9.98,9.98 v 44.01 c 0,5.51 4.46,9.98 9.98,9.98 5.51,0 9.98,-4.47 9.98,-9.98 v -44.01 c 0,-5.51 -4.47,-9.98 -9.98,-9.98"
         style="fill:#324f89;fill-opacity:1;fill-rule:nonzero;stroke:none"
         id="path40" />
      <path
         d="m 4039.77,3408.59 h -39.54 c -5.5,0 -9.98,4.47 -9.98,9.98 0,5.52 4.48,9.98 9.98,9.98 h 39.54 c 5.5,0 9.98,-4.46 9.98,-9.98 0,-5.51 -4.48,-9.98 -9.98,-9.98"
         style="fill:#324f89;fill-opacity:1;fill-rule:nonzero;stroke:none"
         id="path42" />
      <path
         d="m 3955.75,3408.59 h -39.53 c -5.51,0 -9.98,4.47 -9.98,9.98 0,5.52 4.47,9.98 9.98,9.98 h 39.53 c 5.52,0 9.98,-4.46 9.98,-9.98 0,-5.51 -4.46,-9.98 -9.98,-9.98"
         style="fill:#324f89;fill-opacity:1;fill-rule:nonzero;stroke:none"
         id="path44" />
      <path
         d="m 1001,3754.71 c 0,-24.08 19.58,-43.66 43.66,-43.66 24.07,0 43.66,19.58 43.66,43.66 0,24.07 -19.59,43.66 -43.66,43.66 -24.08,0 -43.66,-19.59 -43.66,-43.66 z m -19.961,0 c 0,35.08 28.541,63.62 63.621,63.62 35.08,0 63.62,-28.54 63.62,-63.62 0,-35.08 -28.54,-63.62 -63.62,-63.62 -35.08,0 -63.621,28.54 -63.621,63.62"
         style="fill:#3e6ca7;fill-opacity:1;fill-rule:nonzero;stroke:none"
         id="path46" />
      <path
         d="m 745.508,3512.22 c 0,-24.08 19.586,-43.66 43.664,-43.66 24.07,0 43.656,19.58 43.656,43.66 0,24.07 -19.586,43.66 -43.656,43.66 -24.078,0 -43.664,-19.59 -43.664,-43.66 z m -19.961,0 c 0,35.07 28.539,63.62 63.625,63.62 35.074,0 63.617,-28.55 63.617,-63.62 0,-35.08 -28.543,-63.62 -63.617,-63.62 -35.086,0 -63.625,28.54 -63.625,63.62"
         style="fill:#f2526a;fill-opacity:1;fill-rule:nonzero;stroke:none"
         id="path48" />
      <path
         d="m 593.281,3422.94 c 5.512,0 9.981,4.47 9.981,9.98 v 44.01 c 0,5.51 -4.469,9.98 -9.981,9.98 -5.508,0 -9.98,-4.47 -9.98,-9.98 v -44.01 c 0,-5.51 4.472,-9.98 9.98,-9.98"
         style="fill:#3e6ca7;fill-opacity:1;fill-rule:nonzero;stroke:none"
         id="path50" />
      <path
         d="m 593.281,3345.92 c 5.512,0 9.981,4.47 9.981,9.98 v 44.01 c 0,5.51 -4.469,9.98 -9.981,9.98 -5.508,0 -9.98,-4.47 -9.98,-9.98 v -44.01 c 0,-5.51 4.472,-9.98 9.98,-9.98"
         style="fill:#3e6ca7;fill-opacity:1;fill-rule:nonzero;stroke:none"
         id="path52" />
      <path
         d="m 531.508,3406.44 h 39.539 c 5.508,0 9.973,4.46 9.973,9.98 0,5.51 -4.465,9.98 -9.973,9.98 h -39.539 c -5.508,0 -9.981,-4.47 -9.981,-9.98 0,-5.52 4.473,-9.98 9.981,-9.98"
         style="fill:#3e6ca7;fill-opacity:1;fill-rule:nonzero;stroke:none"
         id="path54" />
      <path
         d="m 615.523,3406.44 h 39.532 c 5.511,0 9.98,4.46 9.98,9.98 0,5.51 -4.469,9.98 -9.98,9.98 h -39.532 c -5.511,0 -9.98,-4.47 -9.98,-9.98 0,-5.52 4.469,-9.98 9.98,-9.98"
         style="fill:#3e6ca7;fill-opacity:1;fill-rule:nonzero;stroke:none"
         id="path56" />
      <path
         d="m 823.227,3761.24 c 5.511,0 9.98,4.46 9.98,9.97 v 44.01 c 0,5.51 -4.469,9.98 -9.98,9.98 -5.508,0 -9.981,-4.47 -9.981,-9.98 v -44.01 c 0,-5.51 4.473,-9.97 9.981,-9.97"
         style="fill:#324f89;fill-opacity:1;fill-rule:nonzero;stroke:none"
         id="path58" />
      <path
         d="m 823.227,3684.22 c 5.511,0 9.98,4.47 9.98,9.98 v 44.01 c 0,5.51 -4.469,9.97 -9.98,9.97 -5.508,0 -9.981,-4.46 -9.981,-9.97 v -44.01 c 0,-5.51 4.473,-9.98 9.981,-9.98"
         style="fill:#324f89;fill-opacity:1;fill-rule:nonzero;stroke:none"
         id="path60" />
      <path
         d="m 761.453,3744.73 h 39.539 c 5.508,0 9.977,4.47 9.977,9.98 0,5.51 -4.469,9.98 -9.977,9.98 h -39.539 c -5.508,0 -9.976,-4.47 -9.976,-9.98 0,-5.51 4.468,-9.98 9.976,-9.98"
         style="fill:#324f89;fill-opacity:1;fill-rule:nonzero;stroke:none"
         id="path62" />
      <path
         d="M 845.469,3744.73 H 885 c 5.512,0 9.98,4.47 9.98,9.98 0,5.51 -4.468,9.98 -9.98,9.98 h -39.531 c -5.512,0 -9.981,-4.47 -9.981,-9.98 0,-5.51 4.469,-9.98 9.981,-9.98"
         style="fill:#324f89;fill-opacity:1;fill-rule:nonzero;stroke:none"
         id="path64" />
      <path
         d="m 3323.93,3522.6 v -184.11 c 0,-24.34 -19.75,-44.08 -44.09,-44.08 h -334.29 l -100.93,-36.21 c -10.36,-3.73 -20.28,6.46 -16.31,16.71 l 38.18,98.6 v 149.09 c 0,24.34 19.75,44.08 44.11,44.08 h 369.24 c 24.34,0 44.09,-19.74 44.09,-44.08"
         style="fill:#f2526a;fill-opacity:1;fill-rule:nonzero;stroke:none"
         id="path66" />
      <path
         d="m 3253.45,3470.51 h -306.68 c -6.72,0 -12.17,5.45 -12.17,12.17 0,6.72 5.45,12.16 12.17,12.16 h 306.68 c 6.72,0 12.17,-5.44 12.17,-12.16 0,-6.72 -5.45,-12.17 -12.17,-12.17"
         style="fill:#e1405f;fill-opacity:1;fill-rule:nonzero;stroke:none"
         id="path68" />
      <path
         d="m 3253.45,3421.52 h -306.68 c -6.72,0 -12.17,5.45 -12.17,12.17 0,6.71 5.45,12.16 12.17,12.16 h 306.68 c 6.72,0 12.17,-5.45 12.17,-12.16 0,-6.72 -5.45,-12.17 -12.17,-12.17"
         style="fill:#e1405f;fill-opacity:1;fill-rule:nonzero;stroke:none"
         id="path70" />
      <path
         d="m 3253.45,3372.53 h -306.68 c -6.72,0 -12.17,5.45 -12.17,12.17 0,6.72 5.45,12.17 12.17,12.17 h 306.68 c 6.72,0 12.17,-5.45 12.17,-12.17 0,-6.72 -5.45,-12.17 -12.17,-12.17"
         style="fill:#e1405f;fill-opacity:1;fill-rule:nonzero;stroke:none"
         id="path72" />
      <path
         d="m 2048.25,3980.81 c 1.08,-0.27 2.24,-0.28 3.39,0.02 12.19,3.19 19.25,4.48 19.32,4.5 3.69,0.67 6.14,4.2 5.47,7.89 -0.67,3.69 -4.2,6.14 -7.89,5.48 -0.3,-0.06 -7.58,-1.39 -20.35,-4.73 -3.62,-0.95 -5.8,-4.66 -4.85,-8.3 0.65,-2.47 2.59,-4.27 4.91,-4.86"
         style="fill:#bcd3ef;fill-opacity:1;fill-rule:nonzero;stroke:none"
         id="path74" />
      <path
         d="m 1653.69,3669.53 c -6.33,-11.54 -12.42,-23.5 -18.11,-35.56 -1.41,-2.98 -4.72,-4.46 -7.81,-3.68 l -1.24,0.44 c -3.39,1.6 -4.84,5.65 -3.24,9.05 5.81,12.3 12.03,24.51 18.49,36.28 1.8,3.29 5.91,4.5 9.22,2.69 3.29,-1.8 4.49,-5.93 2.69,-9.22"
         style="fill:#bcd3ef;fill-opacity:1;fill-rule:nonzero;stroke:none"
         id="path76" />
      <path
         d="m 1619.61,3597.39 c -4.89,-12.19 -9.55,-24.79 -13.84,-37.46 -1.14,-3.38 -4.69,-5.27 -8.09,-4.41 l -0.52,0.15 c -3.55,1.2 -5.46,5.06 -4.25,8.61 4.36,12.91 9.11,25.75 14.1,38.18 1.4,3.48 5.36,5.16 8.83,3.77 3.49,-1.41 5.17,-5.36 3.77,-8.84"
         style="fill:#bcd3ef;fill-opacity:1;fill-rule:nonzero;stroke:none"
         id="path78" />
      <path
         d="m 1562.02,3398.44 c -3.28,0.83 -5.5,4 -5.06,7.45 1.74,13.51 3.78,27.04 6.09,40.18 0.64,3.7 4.16,6.17 7.86,5.53 3.74,-0.68 6.17,-4.17 5.52,-7.86 -2.27,-12.95 -4.28,-26.27 -5.99,-39.58 -0.48,-3.73 -3.88,-6.35 -7.6,-5.87 l -0.82,0.15"
         style="fill:#bcd3ef;fill-opacity:1;fill-rule:nonzero;stroke:none"
         id="path80" />
      <path
         d="m 1589.3,3530.13 c 3.61,-1.01 5.72,-4.76 4.71,-8.37 -1.66,-5.97 -3.27,-12 -4.77,-17.95 -1.74,-6.85 -3.41,-13.86 -4.98,-20.84 -0.83,-3.65 -4.46,-5.95 -8.12,-5.13 l -0.18,0.04 c -3.56,0.9 -5.76,4.48 -4.95,8.08 1.59,7.09 3.29,14.22 5.06,21.19 1.53,6.04 3.16,12.19 4.86,18.26 0.99,3.56 4.65,5.66 8.21,4.76 l 0.16,-0.04"
         style="fill:#bcd3ef;fill-opacity:1;fill-rule:nonzero;stroke:none"
         id="path82" />
      <path
         d="m 1673.95,3703.9 c -1.61,-2.55 -4.64,-3.66 -7.41,-2.95 l -1.96,0.84 c -3.17,2 -4.12,6.2 -2.11,9.37 7.24,11.46 14.92,22.81 22.85,33.74 2.2,3.04 6.44,3.72 9.48,1.52 3.04,-2.21 3.72,-6.45 1.52,-9.49 -7.76,-10.7 -15.28,-21.81 -22.37,-33.03"
         style="fill:#bcd3ef;fill-opacity:1;fill-rule:nonzero;stroke:none"
         id="path84" />
      <path
         d="m 2013.52,3969.26 c -12.4,-4.24 -24.97,-8.98 -37.38,-14.1 -1.4,-0.58 -2.89,-0.66 -4.26,-0.31 -2.01,0.51 -3.76,1.93 -4.61,3.99 -1.43,3.47 0.22,7.44 3.68,8.87 12.67,5.23 25.51,10.08 38.18,14.4 3.54,1.22 7.41,-0.68 8.62,-4.22 1.21,-3.55 -0.68,-7.42 -4.23,-8.63"
         style="fill:#bcd3ef;fill-opacity:1;fill-rule:nonzero;stroke:none"
         id="path86" />
      <path
         d="m 1904.21,3920.38 c -1.58,-0.88 -3.36,-1.06 -4.98,-0.65 -1.74,0.44 -3.32,1.57 -4.26,3.27 -1.83,3.28 -0.65,7.42 2.62,9.24 11.82,6.59 23.98,12.93 36.16,18.81 3.37,1.64 7.43,0.22 9.07,-3.15 1.63,-3.38 0.22,-7.44 -3.16,-9.08 -11.94,-5.77 -23.86,-11.97 -35.45,-18.44"
         style="fill:#bcd3ef;fill-opacity:1;fill-rule:nonzero;stroke:none"
         id="path88" />
      <path
         d="m 1775.39,3826.57 c -1.75,-1.64 -4.14,-2.18 -6.32,-1.63 -1.21,0.31 -2.36,0.96 -3.28,1.94 -2.56,2.74 -2.42,7.04 0.32,9.6 9.85,9.23 20.15,18.29 30.6,26.92 2.89,2.39 7.18,1.99 9.57,-0.91 2.39,-2.9 1.98,-7.18 -0.91,-9.57 -10.24,-8.45 -20.33,-17.31 -29.98,-26.35"
         style="fill:#bcd3ef;fill-opacity:1;fill-rule:nonzero;stroke:none"
         id="path90" />
      <path
         d="m 1836.92,3877.38 c -1.7,-1.23 -3.78,-1.56 -5.67,-1.09 -1.48,0.38 -2.85,1.25 -3.82,2.59 -2.21,3.03 -1.54,7.28 1.5,9.49 10.9,7.92 22.23,15.65 33.68,22.96 3.16,2.02 7.36,1.09 9.38,-2.07 2.02,-3.16 1.09,-7.36 -2.07,-9.38 -11.22,-7.16 -22.32,-14.73 -33,-22.5"
         style="fill:#bcd3ef;fill-opacity:1;fill-rule:nonzero;stroke:none"
         id="path92" />
      <path
         d="m 1720.74,3768.47 c -1.73,-2.09 -4.44,-2.88 -6.9,-2.26 -0.95,0.24 -1.86,0.69 -2.66,1.35 -2.89,2.4 -3.29,6.68 -0.9,9.57 8.62,10.42 17.69,20.71 26.96,30.57 2.57,2.73 6.87,2.86 9.61,0.29 2.73,-2.57 2.86,-6.87 0.29,-9.6 -9.07,-9.65 -17.96,-19.72 -26.4,-29.92"
         style="fill:#bcd3ef;fill-opacity:1;fill-rule:nonzero;stroke:none"
         id="path94" />
      <path
         d="m 2055,4026.79 -13.73,113.21 360.08,-55.01 z"
         style="fill:#f2526a;fill-opacity:1;fill-rule:nonzero;stroke:none"
         id="path96" />
      <path
         d="m 2401.35,4085 -332.63,-87.04 -0.88,-0.24 -16.71,-20.4 3.87,49.47 346.35,58.21"
         style="fill:#cc3256;fill-opacity:1;fill-rule:nonzero;stroke:none"
         id="path98" />
      <path
         d="m 2051.13,3977.32 29.89,0.4 -13.18,20 z"
         style="fill:#a92651;fill-opacity:1;fill-rule:nonzero;stroke:none"
         id="path100" />
      <path
         d="m 2109.69,4008.68 -41.86,-10.95 68.09,-103.27 265.43,190.53 -291.66,-76.31"
         style="fill:#f2526a;fill-opacity:1;fill-rule:nonzero;stroke:none"
         id="path102" />
      <path
         d="M 1290.78,796.43 C 1163.33,925.922 902.594,1211.5 736.781,1534.67 492.758,2010.3 248.059,1967.78 200.051,1799.65 91.3906,1419.16 637.797,1009.78 979.273,796.43 h 311.507"
         style="fill:#3e6ca7;fill-opacity:1;fill-rule:nonzero;stroke:none"
         id="path104" />
      <path
         d="m 1189.28,796.43 c -193.635,151.968 -357.315,324.62 -471.073,457.2 -163.594,190.63 -262.137,341.74 -263.129,343.27 -3.515,5.42 -10.797,6.97 -16.226,3.42 -5.454,-3.5 -7,-10.78 -3.454,-16.22 0.957,-1.51 100.207,-153.69 264.723,-345.47 C 810.09,1110.44 966.449,945 1151.51,796.43 h 37.77"
         style="fill:#324f89;fill-opacity:1;fill-rule:nonzero;stroke:none"
         id="path106" />
      <path
         d="m 1269.71,954.172 c -57.24,114.218 -165.75,353.508 -205.99,597.328 -60.12,364.33 -230.029,388 -297.083,287.55 -184.188,-275.87 257.213,-783.36 397.993,-933.581 l 105.08,48.703"
         style="fill:#324f89;fill-opacity:1;fill-rule:nonzero;stroke:none"
         id="path108" />
      <path
         d="m 1229.71,935.629 c -107.5,150.851 -186.8,314.541 -237.522,434.961 -67.364,159.9 -100.286,280.08 -100.61,281.29 -1.172,4.31 -5.633,6.87 -9.953,5.68 -4.324,-1.15 -6.879,-5.62 -5.691,-9.93 0.312,-1.2 33.468,-122.24 101.199,-283.09 50.787,-120.62 130.107,-284.41 237.617,-435.841 l 14.96,6.93"
         style="fill:#2c335c;fill-opacity:1;fill-rule:nonzero;stroke:none"
         id="path110" />
      <path
         d="m 3777.82,1965.08 c 109.13,127.9 346.08,426.27 484.76,755.2 199,472.06 435.9,449.02 493.87,291.8 149.92,-406.62 -515.07,-910.81 -792.34,-1099.42 l -186.29,52.42"
         style="fill:#3e6ca7;fill-opacity:1;fill-rule:nonzero;stroke:none"
         id="path112" />
      <path
         d="m 3843.4,1946.62 c 192.01,167.92 350.48,361.4 457.13,506.43 142.62,193.92 225.93,345.41 226.77,346.95 2.97,5.43 9.82,7.43 15.27,4.43 5.46,-2.96 7.46,-9.8 4.46,-15.25 -0.81,-1.52 -84.72,-154.07 -228.14,-349.16 -105.35,-143.31 -261.01,-333.63 -449.7,-500.65 l -25.79,7.25"
         style="fill:#324f89;fill-opacity:1;fill-rule:nonzero;stroke:none"
         id="path114" />
      <path
         d="m 3795.03,2127.24 c 46.48,113.27 132.99,349.73 153.92,585.63 31.26,352.47 191.92,387.32 263.22,296.14 195.84,-250.39 -189.48,-767.08 -313.22,-920.76 l -103.92,38.99"
         style="fill:#324f89;fill-opacity:1;fill-rule:nonzero;stroke:none"
         id="path116" />
      <path
         d="m 3834.59,2112.4 c 91.87,151.88 155.9,314.01 195.71,432.72 52.88,157.65 75.71,274.86 75.93,276.05 0.8,4.2 4.88,6.96 9.1,6.13 4.21,-0.79 6.97,-4.86 6.15,-9.08 -0.21,-1.17 -23.2,-119.21 -76.36,-277.79 -39.87,-118.93 -103.88,-281.15 -195.74,-433.57 l -14.79,5.54"
         style="fill:#2c335c;fill-opacity:1;fill-rule:nonzero;stroke:none"
         id="path118" />
      <path
         d="m 4450.21,1593.66 c 34.16,180.95 99.83,345.98 174.47,277.87 74.7,-68.15 -43.69,-350.01 -220.33,-506.2 l -47.39,-67.5 c 126.75,116.08 330.65,185.29 386.01,119.74 55,-65.14 -84.92,-98.9 -217.85,-108.41 -101.2,-7.25 -165.78,-35.18 -197.12,-52.59 l -223.78,-318.8 c 201.23,183.24 523.19,292.16 610.77,188.43 87.28,-103.36 -134.74,-156.911 -345.66,-172.009 -159.41,-11.41 -261.62,-55.203 -311.75,-82.859 l -44.62,-63.57 c -12.24,6.008 -24.43,12.09 -36.59,18.25 l 266.24,379.278 c 1.55,38.99 -2.06,94.09 -21.45,162.76 -36.23,128.26 -52.03,271.32 27.92,241.73 69.4,-25.69 82.07,-189.33 41.86,-335.63 l 92.08,131.16 c 21.55,45.45 52.45,110.26 67.19,188.35"
         style="fill:#3e6ca7;fill-opacity:1;fill-rule:nonzero;stroke:none"
         id="path120" />
      <path
         d="m 924.441,3040.59 c -18.05,149.82 -62.746,288.35 -127.492,236.73 -64.804,-51.65 16.625,-288.58 152.543,-425.94 l 35.059,-57.78 c -97.305,101.83 -260.258,169.55 -309.102,118.97 -48.531,-50.26 64.039,-85.49 172.223,-100.53 82.351,-11.44 133.637,-37.81 158.308,-53.76 l 165.59,-272.9 c -154.54,160.82 -411.867,267.46 -489.144,187.42 -77.004,-79.76 101.613,-135.67 273.265,-159.52 129.719,-18.03 210.919,-59.41 250.389,-84.76 l 33.02,-54.42 c 10.33,4.25 20.64,8.55 30.92,12.92 l -197.01,324.67 c 0.86,31.96 6.81,76.83 26.42,131.92 36.62,102.9 57.35,219.02 -9.64,199.18 -58.14,-17.21 -77.44,-150.33 -52.54,-272.16 l -68.133,112.28 c -15.152,38.34 -36.883,93.01 -44.676,157.68"
         style="fill:#3e6ca7;fill-opacity:1;fill-rule:nonzero;stroke:none"
         id="path122" />
      <path
         d="m 2433.52,854.91 c 1.75,29.102 3.4,56.801 4.91,82.469 6.17,104.941 10.14,176.581 10.14,176.581 l -41.1,1.84 -23.17,1.05 -279.44,12.42 c 0,0 -5.08,-80.12 -11.07,-197.782 -1.23,-24.066 -2.5,-49.718 -3.77,-76.578 h 343.5"
         style="fill:#2c335c;fill-opacity:1;fill-rule:nonzero;stroke:none"
         id="path124" />
      <path
         d="m 2407.47,1115.8 41.1,-1.84 c 0,0 -3.97,-71.64 -10.14,-176.581 -107.36,-8.949 -224.58,-12.59 -344.64,-5.891 5.99,117.662 11.07,197.782 11.07,197.782 l 279.44,-12.42 23.17,-1.05"
         style="fill:#201f39;fill-opacity:1;fill-rule:nonzero;stroke:none"
         id="path126" />
      <path
         d="m 2392.8,854.91 c 6.48,112.11 11.8,208.15 14.69,260.88 l -23.17,1.05 c -2.9,-52.97 -8.24,-149.442 -14.74,-261.93 h 23.22"
         style="fill:#201f39;fill-opacity:1;fill-rule:nonzero;stroke:none"
         id="path128" />
      <path
         d="m 2523.57,854.91 h 343.5 c -1.27,26.86 -2.54,52.512 -3.76,76.578 -6,117.662 -11.08,197.782 -11.08,197.782 l -279.44,-12.42 -23.16,-1.05 -41.11,-1.84 c 0,0 3.97,-71.64 10.14,-176.581 1.52,-25.668 3.17,-53.367 4.91,-82.469"
         style="fill:#2c335c;fill-opacity:1;fill-rule:nonzero;stroke:none"
         id="path130" />
      <path
         d="m 2549.63,1115.8 -41.11,-1.84 c 0,0 3.97,-71.64 10.14,-176.581 107.37,-8.949 224.58,-12.59 344.65,-5.891 -6,117.662 -11.08,197.782 -11.08,197.782 l -279.44,-12.42 -23.16,-1.05"
         style="fill:#201f39;fill-opacity:1;fill-rule:nonzero;stroke:none"
         id="path132" />
      <path
         d="m 2587.52,854.91 c -6.5,112.488 -11.84,208.96 -14.74,261.93 l -23.17,-1.05 c 2.89,-52.73 8.2,-148.77 14.69,-260.88 h 23.22"
         style="fill:#201f39;fill-opacity:1;fill-rule:nonzero;stroke:none"
         id="path134" />
      <path
         d="m 2891.92,1168.06 c 0,-33.02 -0.07,-59.19 -0.3,-76.86 -78.19,-21.05 -156.34,-36.33 -234.48,-45.66 -2.07,-0.26 -4.17,-0.51 -6.26,-0.75 -3.49,-0.42 -6.94,-0.84 -10.38,-1.23 l -2.63,-0.24 c -13.57,-1.46 -27.05,-2.78 -40.63,-3.92 -28.17,-2.32 -69.14,-4.31 -97.31,-5.09 l -21.85,130.13 -21.86,-130.13 c -16.16,0.25 -44.4,0.75 -60.55,1.48 -5.93,0.3 -11.79,0.59 -17.67,0.97 -5.25,0.24 -10.6,0.6 -15.88,0.97 -2.4,0.13 -4.8,0.29 -7.19,0.46 -4.5,0.34 -8.91,0.66 -13.41,1.01 -98.76,7.98 -197.45,25.27 -296.17,52 -0.5,38.9 -1.01,118.08 -1.14,220.27 0,5.61 -0.02,11.28 0,17.05 -0.12,112.69 0.31,250.98 1.64,393.41 0.13,11.26 0.26,22.54 0.39,33.85 0.12,15.26 0.3,30.6 0.5,46 0.05,3.1 0.08,6.18 0.13,9.28 0.04,6.19 0.12,12.4 0.25,18.58 0.13,9.01 0.25,18 0.38,26.95 0.3,20.42 0.58,40.82 0.93,61.09 4.74,282.74 14.28,542.62 32.49,608.75 1.69,6.08 3.46,10.55 5.25,13.2 1.94,2.93 4.34,5.94 7.01,8.99 3.39,3.86 7.32,7.83 11.74,11.86 30.27,27.87 82.81,60.23 136.07,90.97 6.19,3.56 12.45,7.14 18.63,10.67 0.93,0.51 144.73,49.02 145.66,49.58 l 150.41,-10.53 c 18.08,-10.62 160.38,-58.98 177.83,-69.86 5.17,-3.23 10.27,-6.47 15.26,-9.67 40.95,-26.4 75.7,-52.58 90.9,-74.86 21.88,-32.21 35.13,-320.89 42.78,-634.95 0.2,-7.23 0.37,-14.47 0.56,-21.69 0.78,-33.22 1.51,-66.63 2.17,-100 0.68,-32.96 1.26,-65.88 1.81,-98.52 0.88,-53.43 1.64,-106.05 2.28,-156.72 0.07,-5.75 0.11,-11.45 0.19,-17.19 0.61,-49.39 1.07,-96.77 1.45,-140.99 0.05,-5.8 0.07,-11.51 0.12,-17.19 0.5,-66.43 0.81,-125.19 0.84,-172.39 v -0.05 c 0.04,-6.59 0.04,-12.9 0.04,-19.03"
         style="fill:#3e6ca7;fill-opacity:1;fill-rule:nonzero;stroke:none"
         id="path136" />
      <path
         d="m 2485.63,2485.2 87.5,-738.51 -94.7,-182.78 -97.2,182.78 92.73,738.29 11.67,0.22"
         style="fill:#f0efef;fill-opacity:1;fill-rule:nonzero;stroke:none"
         id="path138" />
      <path
         d="m 2539.87,2514.59 -60.84,-97.63 -62.76,96.78 61.8,118.06 61.8,-117.21"
         style="fill:#ffffff;fill-opacity:1;fill-rule:nonzero;stroke:none"
         id="path140" />
      <path
         d="m 2391.67,2723.53 c 0,0 -54.1,0.58 -72.43,-43.06 0,0 -5.54,-133.83 97.03,-166.73 l 61.8,118.06 c 0,0 -77.01,23.76 -86.4,91.73"
         style="fill:#324f89;fill-opacity:1;fill-rule:nonzero;stroke:none"
         id="path142" />
      <path
         d="m 2558.84,2723.53 c 0,0 46.38,-6.78 64.7,-50.42 0,0 18.78,-126.47 -83.78,-159.37 l -61.69,118.06 c 0,0 71.38,23.76 80.77,91.73"
         style="fill:#324f89;fill-opacity:1;fill-rule:nonzero;stroke:none"
         id="path144" />
      <path
         d="m 2499.93,1487.79 c 0,-12.07 -9.78,-21.85 -21.86,-21.85 -12.07,0 -21.85,9.78 -21.85,21.85 0,12.07 9.78,21.86 21.85,21.86 12.08,0 21.86,-9.79 21.86,-21.86"
         style="fill:#324f89;fill-opacity:1;fill-rule:nonzero;stroke:none"
         id="path146" />
      <path
         d="m 2499.93,1313.58 c 0,-12.07 -9.78,-21.85 -21.86,-21.85 -12.07,0 -21.85,9.78 -21.85,21.85 0,12.07 9.78,21.86 21.85,21.86 12.08,0 21.86,-9.79 21.86,-21.86"
         style="fill:#324f89;fill-opacity:1;fill-rule:nonzero;stroke:none"
         id="path148" />
      <path
         d="m 2682.41,2073.84 h -8.94 c -48.58,0 -87.94,39.37 -87.94,87.95 v 112.96 h 184.83 v -112.96 c 0,-48.58 -39.37,-87.95 -87.95,-87.95"
         style="fill:#324f89;fill-opacity:1;fill-rule:nonzero;stroke:none"
         id="path150" />
      <path
         d="m 2271.03,3095.21 c 0,0 3.39,80.16 -7.41,112.07 -19.11,56.44 -9.92,99.79 32.31,113.29 48.34,15.45 8.59,49.08 55.22,63.8 46.62,14.73 57.96,-24.97 86.24,-9.81 28.29,15.15 37.88,26.09 65.91,29.86 42.6,5.72 45.29,-34.86 74.68,-29.45 48.85,8.99 76.14,-22.5 86.06,-54.4 9.92,-31.9 2.37,-40.96 24.93,-50.31 33.56,-13.91 27.43,-69.12 9.02,-92.44 -18.41,-23.31 -15.38,-32.55 -16.69,-69.45 -1.31,-36.89 -410.27,-13.16 -410.27,-13.16"
         style="fill:#2c335c;fill-opacity:1;fill-rule:nonzero;stroke:none"
         id="path152" />
      <path
         d="m 2660.43,3023.61 c 0,0 35.29,47.06 61.54,8.15 26.25,-38.92 -10.86,-153.85 -75.11,-125.8 l 13.57,117.65"
         style="fill:#f57e70;fill-opacity:1;fill-rule:nonzero;stroke:none"
         id="path154" />
      <path
         d="m 2660.89,2941.48 c 2.37,0 4.55,1.57 5.22,3.96 9.96,35.49 46.72,49.88 47.09,50.02 2.81,1.06 4.21,4.2 3.15,7 -1.07,2.8 -4.19,4.21 -6.99,3.16 -1.72,-0.65 -42.23,-16.38 -53.71,-57.24 -0.81,-2.89 0.88,-5.88 3.77,-6.7 l 1.47,-0.2"
         style="fill:#f25065;fill-opacity:1;fill-rule:nonzero;stroke:none"
         id="path156" />
      <path
         d="m 2698,2959.36 c 1,0 2.02,0.27 2.93,0.86 2.52,1.63 3.25,4.99 1.63,7.5 -0.27,0.42 -6.78,10.35 -20.38,16.44 -2.73,1.22 -5.95,0 -7.18,-2.74 -1.22,-2.74 0,-5.95 2.74,-7.18 10.52,-4.7 15.64,-12.32 15.69,-12.39 1.03,-1.62 2.78,-2.49 4.57,-2.49"
         style="fill:#f25065;fill-opacity:1;fill-rule:nonzero;stroke:none"
         id="path158" />
      <path
         d="m 2296.69,3023.61 c 0,0 -35.3,47.06 -61.54,8.15 -26.25,-38.92 10.86,-153.85 75.11,-125.8 l -13.57,117.65"
         style="fill:#f57e70;fill-opacity:1;fill-rule:nonzero;stroke:none"
         id="path160" />
      <path
         d="m 2296.23,2941.48 c -2.37,0 -4.55,1.57 -5.22,3.96 -9.96,35.49 -46.72,49.88 -47.09,50.02 -2.8,1.06 -4.21,4.2 -3.15,7 1.06,2.8 4.2,4.21 6.99,3.16 1.72,-0.65 42.24,-16.38 53.7,-57.24 0.82,-2.89 -0.87,-5.88 -3.76,-6.7 l -1.47,-0.2"
         style="fill:#f25065;fill-opacity:1;fill-rule:nonzero;stroke:none"
         id="path162" />
      <path
         d="m 2259.13,2959.36 c -1.01,0 -2.03,0.27 -2.94,0.86 -2.52,1.63 -3.25,4.99 -1.62,7.5 0.26,0.42 6.77,10.35 20.38,16.44 2.72,1.22 5.94,0 7.16,-2.74 1.23,-2.74 0,-5.95 -2.73,-7.18 -10.52,-4.7 -15.64,-12.32 -15.68,-12.39 -1.04,-1.62 -2.79,-2.49 -4.57,-2.49"
         style="fill:#f25065;fill-opacity:1;fill-rule:nonzero;stroke:none"
         id="path164" />
      <path
         d="m 2391.67,2808.47 v -114.3 c 0,0 34.09,-58.21 80.19,-62.17 46.05,-4.03 86.98,50.11 86.98,50.11 v 118.32 l -167.17,8.04"
         style="fill:#f8a499;fill-opacity:1;fill-rule:nonzero;stroke:none"
         id="path166" />
      <path
         d="m 2391.67,2808.47 v -50.72 c 30.94,-34.32 85.87,-42.89 167.17,-30.89 v 73.57 l -167.17,8.04"
         style="fill:#f57e70;fill-opacity:1;fill-rule:nonzero;stroke:none"
         id="path168" />
      <path
         d="m 2271.19,3102 c 2.09,-44.42 6.31,-99.97 14.81,-144.35 v -0.13 l 0.08,-0.43 0.04,-0.08 c 2.09,-10.84 4.44,-21.04 7,-30.21 1.54,-5.38 3.2,-11.01 5.08,-16.78 27.09,-84.99 89.86,-208.01 247.62,-151.73 66.44,23.68 101.05,92.3 118.66,166.71 1.03,4.44 2,8.84 2.86,13.06 0.6,2.82 1.16,5.55 1.66,8.24 l 0.78,3.96 0.25,1.45 0.04,0.26 c 10.42,57.22 11.99,115.09 11.23,156.43 -0.81,42.16 -23.86,80.74 -60.56,101.52 -99.37,56.36 -204.3,35.33 -273.39,8.79 -47.96,-18.39 -78.64,-65.46 -76.16,-116.71"
         style="fill:#f8a499;fill-opacity:1;fill-rule:nonzero;stroke:none"
         id="path170" />
      <path
         d="m 2482.07,2890.1 c 112.61,15.19 94.89,-45.44 94.89,-45.44 -12.5,-11.4 -23.93,-19.72 -31.61,-24.03 -24.58,-13.7 -48.78,-18.9 -66.31,-18.05 -17.29,0.73 -22.02,-2.81 -65.71,20.82 -7.73,4.14 -15.54,10.29 -23.18,17.59 h -0.04 v 0.04 c -1.88,11.86 -20.95,68.49 91.96,49.07 z m -196.12,67.55 0.05,-0.13 0.08,-0.43 0.04,-0.08 c 1.02,-3.71 6.58,-24.07 12.08,-46.99 27.09,-84.99 89.86,-208.01 247.62,-151.73 66.44,23.68 101.05,92.3 118.66,166.71 1.03,4.44 2,8.84 2.86,13.06 0.6,2.82 1.16,5.55 1.66,8.24 l 0.78,3.96 0.25,1.45 0.04,0.26 -23.2,4.7 c -4.45,-21.98 -14.26,-42.68 -26.29,-61.06 -19.63,47.02 -119.23,15.78 -119.23,15.78 l -0.47,-0.17 c -6.06,-1.87 -12.29,-2.86 -18.56,-2.86 -6.44,0 -12.84,1.02 -19.07,3.03 0,0 -98.4,32.6 -118.8,-12.24 -20.39,31.57 -34.22,60.21 -34.22,60.21 l -24.23,-1.71 h -0.05"
         style="fill:#2c335c;fill-opacity:1;fill-rule:nonzero;stroke:none"
         id="path172" />
      <path
         d="m 2380.02,3019.35 c 0,-12.21 6.29,-22.09 14.05,-22.09 7.76,0 14.05,9.88 14.05,22.09 0,12.2 -6.29,22.09 -14.05,22.09 -7.76,0 -14.05,-9.89 -14.05,-22.09"
         style="fill:#2c335c;fill-opacity:1;fill-rule:nonzero;stroke:none"
         id="path174" />
      <path
         d="m 2555.61,3019.35 c 0,-12.21 6.28,-22.09 14.04,-22.09 7.76,0 14.04,9.88 14.04,22.09 0,12.2 -6.28,22.09 -14.04,22.09 -7.76,0 -14.04,-9.89 -14.04,-22.09"
         style="fill:#2c335c;fill-opacity:1;fill-rule:nonzero;stroke:none"
         id="path176" />
      <path
         d="m 2344.07,3093.84 c 0,0 58.03,22.94 102.72,3.63 l -4.47,-24.85 c 0,0 -65.59,5.54 -98.63,-7.85 -2.96,9.57 -3.4,19.24 0.38,29.07"
         style="fill:#2c335c;fill-opacity:1;fill-rule:nonzero;stroke:none"
         id="path178" />
      <path
         d="m 2620.03,3093.73 c 0,0 -58.47,23.1 -103.49,3.66 l 4.5,-25.04 c 0,0 66.08,5.58 99.37,-7.9 2.98,9.63 3.42,19.37 -0.38,29.28"
         style="fill:#2c335c;fill-opacity:1;fill-rule:nonzero;stroke:none"
         id="path180" />
      <path
         d="m 2476.67,2920.61 c -9.16,0 -18.24,3.56 -19.65,4.14 -2.77,1.13 -4.1,4.3 -2.97,7.07 1.13,2.78 4.3,4.11 7.07,2.98 4.91,-1.99 16.68,-5.11 21.79,-2.06 0.98,0.59 2.32,1.76 2.67,5.06 1.96,18.96 -3.24,82.52 -3.29,83.16 -0.24,2.99 1.98,5.61 4.97,5.86 3,0.25 5.61,-1.98 5.86,-4.97 0.21,-2.65 5.32,-65.21 3.26,-85.17 -0.78,-7.51 -4.72,-11.36 -7.9,-13.26 -3.48,-2.08 -7.65,-2.81 -11.81,-2.81"
         style="fill:#f57e70;fill-opacity:1;fill-rule:nonzero;stroke:none"
         id="path182" />
      <path
         d="m 2545.9,2879.25 c -4.12,-20.74 -17.82,-58.9 -63.98,-58.9 -46.27,0 -59.25,34.87 -63.71,58.9 h 127.69"
         style="fill:#ffffff;fill-opacity:1;fill-rule:nonzero;stroke:none"
         id="path184" />
      <path
         d="m 2271.17,3102.02 c 2.12,-44.42 6.35,-99.96 14.82,-144.38 l 24.27,1.72 c 0,0 -5.88,37.5 -8.59,61.93 -2.71,24.44 -7.33,70.12 13.53,75.82 20.79,5.64 8.58,57.75 37.52,80.34 28.95,22.64 93.69,28.85 136.37,2.57 42.68,-26.23 90.77,1.99 110.43,-2.57 19.72,-4.51 46.43,-31.66 39.21,-57.02 -7.27,-25.3 14.44,-40.72 19.71,-66.95 5.27,-26.23 -11.56,-96.82 -11.56,-96.82 l 23.18,-4.67 c 10.43,57.23 12,115.06 11.24,156.38 -0.81,42.2 -23.84,80.75 -60.55,101.55 -99.42,56.36 -204.33,35.35 -273.4,8.8 -47.95,-18.41 -78.63,-65.49 -76.18,-116.7"
         style="fill:#2c335c;fill-opacity:1;fill-rule:nonzero;stroke:none"
         id="path186" />
      <path
         d="m 2117.26,2571.11 c 0,0 -142.81,-95.31 -234.6,-123.65 l 61.47,-257.58 c 0,0 8.48,3.52 112.64,47.78 l 60.49,333.45"
         style="fill:#3e6ca7;fill-opacity:1;fill-rule:nonzero;stroke:none"
         id="path188" />
      <path
         d="m 2817.48,2571.11 c 0,0 272.98,-139.92 364.77,-168.26 -35.11,-63.32 -57.52,-122.2 -87.41,-207.07 0,0 -131.16,34.71 -235.32,78.97 l -42.04,296.36"
         style="fill:#3e6ca7;fill-opacity:1;fill-rule:nonzero;stroke:none"
         id="path190" />
      <path
         d="m 3926.67,853.199 c -5.06,95.582 -9.02,158.001 -9.02,158.001 l -280.18,-12.438 -23.23,-1.051 -41.21,-1.852 c 0,0 3.12,-56.488 8.15,-142.66 h 345.49"
         style="fill:#3d50aa;fill-opacity:1;fill-rule:nonzero;stroke:none"
         id="path192" />
      <path
         d="m 3926.67,853.199 c -5.06,95.582 -9.02,158.001 -9.02,158.001 l -280.18,-12.438 -23.23,-1.051 -41.21,-1.852 c 0,0 3.12,-56.488 8.15,-142.66 h 345.49"
         style="fill:#2c335c;fill-opacity:1;fill-rule:nonzero;stroke:none"
         id="path194" />
      <path
         d="m 3645.55,853.199 c -3.46,61.242 -6.26,112.063 -8.1,145.539 l -23.23,-1.039 c 1.82,-33.258 4.61,-83.687 8.05,-144.5 h 23.28"
         style="fill:#201f39;fill-opacity:1;fill-rule:nonzero;stroke:none"
         id="path196" />
      <path
         d="m 3492.99,853.199 c 5.06,86.172 8.17,142.66 8.17,142.66 l -44.72,1.993 -23.2,1.058 -276.74,12.29 c 0,0 -3.04,-47.868 -7.2,-123.958 -0.59,-10.781 -1.19,-22.172 -1.82,-34.043 h 345.51"
         style="fill:#2c335c;fill-opacity:1;fill-rule:nonzero;stroke:none"
         id="path198" />
      <path
         d="m 3448.39,853.199 c 3.44,60.91 6.22,111.403 8.04,144.653 l -23.2,1.046 c -1.83,-33.476 -4.65,-84.359 -8.1,-145.699 h 23.26"
         style="fill:#201f39;fill-opacity:1;fill-rule:nonzero;stroke:none"
         id="path200" />
      <path
         d="m 3318.14,3050.61 c 0,-126.29 77.75,-213.3 203.98,-213.3 126.28,0 214.31,93.55 214.31,219.83 0,34.82 -5.68,67.35 -16.62,96.12 -0.64,1.71 -1.27,3.42 -1.98,5.08 -1.34,3.28 -2.73,6.54 -4.23,9.71 -2.19,4.87 -4.65,9.64 -7.23,14.24 -32.89,59.16 -91.83,96.77 -171.02,96.77 -151.41,0 -217.21,-102.18 -217.21,-228.45"
         style="fill:#2c335c;fill-opacity:1;fill-rule:nonzero;stroke:none"
         id="path202" />
      <path
         d="m 3394.92,3245.4 c 0,-73.14 59.29,-132.42 132.42,-132.42 73.13,0 132.42,59.28 132.42,132.42 0,73.13 -59.29,132.41 -132.42,132.41 -73.13,0 -132.42,-59.28 -132.42,-132.41"
         style="fill:#2c335c;fill-opacity:1;fill-rule:nonzero;stroke:none"
         id="path204" />
      <path
         d="m 3346.49,2996.24 c 0,0 -35.07,46.77 -61.17,8.09 -26.08,-38.68 10.8,-152.92 74.67,-125.03 l -13.5,116.94"
         style="fill:#f57e70;fill-opacity:1;fill-rule:nonzero;stroke:none"
         id="path206" />
      <path
         d="m 3346.04,2914.6 c -2.36,0 -4.53,1.56 -5.19,3.94 -9.9,35.27 -46.44,49.57 -46.81,49.71 -2.78,1.06 -4.18,4.18 -3.12,6.96 1.05,2.78 4.17,4.19 6.94,3.13 1.71,-0.64 41.98,-16.26 53.38,-56.88 0.8,-2.87 -0.87,-5.85 -3.74,-6.66 l -1.46,-0.2"
         style="fill:#f25065;fill-opacity:1;fill-rule:nonzero;stroke:none"
         id="path208" />
      <path
         d="m 3309.16,2932.37 c -1.01,0 -2.01,0.28 -2.92,0.86 -2.5,1.61 -3.22,4.95 -1.62,7.46 0.27,0.41 6.74,10.28 20.26,16.33 2.71,1.22 5.91,0 7.13,-2.73 1.22,-2.71 0,-5.91 -2.72,-7.13 -10.46,-4.67 -15.54,-12.24 -15.59,-12.32 -1.03,-1.6 -2.77,-2.47 -4.54,-2.47"
         style="fill:#f25065;fill-opacity:1;fill-rule:nonzero;stroke:none"
         id="path210" />
      <path
         d="m 3708.04,2996.24 c 0,0 35.08,46.77 61.16,8.09 26.09,-38.68 -10.79,-152.92 -74.66,-125.03 l 13.5,116.94"
         style="fill:#f57e70;fill-opacity:1;fill-rule:nonzero;stroke:none"
         id="path212" />
      <path
         d="m 3708.49,2914.6 c 2.36,0 4.53,1.56 5.19,3.94 9.9,35.27 46.44,49.57 46.81,49.71 2.78,1.06 4.18,4.18 3.12,6.96 -1.05,2.78 -4.17,4.19 -6.95,3.13 -1.7,-0.64 -41.97,-16.26 -53.37,-56.88 -0.81,-2.87 0.87,-5.85 3.74,-6.66 l 1.46,-0.2"
         style="fill:#f25065;fill-opacity:1;fill-rule:nonzero;stroke:none"
         id="path214" />
      <path
         d="m 3745.37,2932.37 c 1.01,0 2.01,0.28 2.92,0.86 2.5,1.61 3.22,4.95 1.61,7.46 -0.26,0.41 -6.73,10.28 -20.25,16.33 -2.71,1.22 -5.92,0 -7.13,-2.73 -1.22,-2.71 0,-5.91 2.72,-7.13 10.46,-4.67 15.54,-12.24 15.59,-12.32 1.04,-1.6 2.77,-2.47 4.54,-2.47"
         style="fill:#f25065;fill-opacity:1;fill-rule:nonzero;stroke:none"
         id="path216" />
      <path
         d="m 3613.62,2782.4 v -113.62 c 0,0 -33.87,-57.85 -79.69,-61.79 -45.78,-4 -86.46,49.81 -86.46,49.81 v 117.61 l 166.15,7.99"
         style="fill:#f8a499;fill-opacity:1;fill-rule:nonzero;stroke:none"
         id="path218" />
      <path
         d="m 3613.62,2782.4 v -50.41 c -30.74,-34.12 -85.35,-42.64 -166.15,-30.71 v 73.13 l 166.15,7.99"
         style="fill:#f57e70;fill-opacity:1;fill-rule:nonzero;stroke:none"
         id="path220" />
      <path
         d="m 3325.75,3045.24 c 0.05,-2.06 0.09,-4.17 0.14,-6.32 0.14,-5.53 0.31,-11.14 0.58,-16.93 0.14,-2.91 0.27,-5.83 0.45,-8.75 0.18,-2.96 0.32,-5.93 0.54,-8.93 l 0.04,-0.99 c 0.19,-2.65 0.41,-5.3 0.59,-8.03 1.7,-22.22 4.4,-45.52 8.57,-68.73 l 0.27,-1.52 c 0.68,-3.77 1.44,-7.54 2.2,-11.31 16.25,-79.77 50.67,-156.03 121.28,-181.21 167.43,-59.79 227.22,83.76 251.14,167.47 2.16,7.59 4.18,15.94 5.93,24.73 0.4,1.94 0.81,3.91 1.16,5.93 l 0.28,1.52 c 8.16,43.5 12.34,97.32 14.45,140.73 l 0.05,1.25 c 2.42,50.9 -28.11,97.72 -75.73,115.99 -68.68,26.39 -172.94,47.31 -271.74,-8.71 -36.5,-20.69 -59.39,-59.03 -60.2,-100.95 -0.17,-10.73 -0.22,-22.58 0,-35.24"
         style="fill:#f8a499;fill-opacity:1;fill-rule:nonzero;stroke:none"
         id="path222" />
      <path
         d="m 3525.36,2862.69 c 115.36,19.84 95.88,-38.02 93.96,-50.14 v -0.04 h -0.05 c -7.81,-7.45 -15.8,-13.74 -23.65,-17.96 -44.67,-24.14 -49.52,-20.51 -67.16,-21.27 -17.91,-0.86 -42.64,4.44 -67.74,18.44 -7.85,4.4 -19.52,12.88 -32.31,24.56 0,0 -18.09,61.94 96.95,46.41 z m -188.7,63.87 0.27,-1.52 c 15.26,-83.76 49.55,-166.13 123.48,-192.52 167.43,-59.79 227.22,83.76 251.14,167.47 2.65,9.29 5.03,19.66 7.09,30.66 l 0.28,1.52 -18,1.26 c 0,0 -14.14,-29.26 -34.97,-61.49 -20.83,45.78 -121.37,12.47 -121.37,12.47 -6.34,-2.01 -12.89,-3.05 -19.48,-3.05 -6.38,0 -12.76,0.99 -18.95,2.92 l -0.49,0.13 c 0,0 -101.71,31.92 -121.78,-16.11 -12.3,18.81 -22.31,39.95 -26.84,62.39 l -20.38,-4.13"
         style="fill:#2c335c;fill-opacity:1;fill-rule:nonzero;stroke:none"
         id="path224" />
      <path
         d="m 3455.48,2981.41 c 0,-12.13 -6.25,-21.96 -13.97,-21.96 -7.7,0 -13.95,9.83 -13.95,21.96 0,12.13 6.25,21.95 13.95,21.95 7.72,0 13.97,-9.82 13.97,-21.95"
         style="fill:#2c335c;fill-opacity:1;fill-rule:nonzero;stroke:none"
         id="path226" />
      <path
         d="m 3620.03,2981.86 c 0,-12.13 -6.25,-21.96 -13.97,-21.96 -7.71,0 -13.96,9.83 -13.96,21.96 0,12.12 6.25,21.96 13.96,21.96 7.72,0 13.97,-9.84 13.97,-21.96"
         style="fill:#2c335c;fill-opacity:1;fill-rule:nonzero;stroke:none"
         id="path228" />
      <path
         d="m 3651.57,3057.32 c 0,0 -44.04,17.41 -77.96,2.76 l 3.39,-18.86 c 0,0 49.78,4.2 74.87,-5.96 2.24,7.26 2.56,14.6 -0.3,22.06"
         style="fill:#2c335c;fill-opacity:1;fill-rule:nonzero;stroke:none"
         id="path230" />
      <path
         d="m 3394.93,3057.32 c 0,0 44.05,17.41 77.97,2.76 l -3.4,-18.86 c 0,0 -49.77,4.2 -74.85,-5.96 -2.25,7.26 -2.58,14.6 0.28,22.06"
         style="fill:#2c335c;fill-opacity:1;fill-rule:nonzero;stroke:none"
         id="path232" />
      <path
         d="m 3533.96,2889.38 c 9.1,0 18.13,3.54 19.53,4.11 2.75,1.13 4.07,4.28 2.95,7.04 -1.12,2.76 -4.28,4.08 -7.04,2.96 -4.87,-1.98 -16.57,-5.09 -21.65,-2.05 -0.97,0.59 -2.31,1.75 -2.64,5.03 -1.96,18.84 3.2,82.02 3.26,82.66 0.24,2.96 -1.97,5.57 -4.94,5.82 -2.98,0.25 -5.58,-1.97 -5.82,-4.94 -0.22,-2.64 -5.3,-64.82 -3.24,-84.65 0.77,-7.47 4.69,-11.29 7.85,-13.18 3.44,-2.07 7.59,-2.8 11.74,-2.8"
         style="fill:#f57e70;fill-opacity:1;fill-rule:nonzero;stroke:none"
         id="path234" />
      <path
         d="m 3456.67,2848.15 c 8.96,-31.14 34.47,-62.21 69.61,-62.64 35.1,0.43 60.6,31.5 69.57,62.64 h -139.18"
         style="fill:#ffffff;fill-opacity:1;fill-rule:nonzero;stroke:none"
         id="path236" />
      <path
         d="m 3325.75,3045.24 c 0.05,-2.06 0.09,-4.17 0.14,-6.32 0.14,-5.53 0.36,-11.18 0.58,-16.93 0.14,-2.91 0.27,-5.83 0.45,-8.75 0.18,-2.96 0.32,-5.93 0.54,-8.93 l 0.04,-0.99 c 0.19,-2.65 0.41,-5.3 0.59,-8.03 1.7,-22.22 4.4,-45.52 8.57,-68.73 l 0.27,-1.52 c 0.68,-3.77 1.44,-7.54 2.2,-11.31 l 18.58,13.87 c -1.17,12.02 -10.73,90.85 -9.24,98.3 5.25,26.08 36.49,53.95 29.26,79.09 -7.18,25.22 -17.91,57.72 1.66,62.21 19.53,4.53 100.05,5.25 150.19,3.63 49.79,-1.61 121.38,8.04 150.15,-14.49 28.77,-22.44 -53.82,-67.47 9.92,-87.04 20.15,-6.19 13.19,-111.32 10.51,-135.87 l 17.32,-8.71 c 0.4,1.94 0.81,3.91 1.16,5.93 l 0.28,1.52 c 8.16,43.5 12.34,97.32 14.45,140.73 l 0.05,1.25 c 2.42,50.9 -28.11,97.72 -75.73,115.99 -68.68,26.39 -172.94,47.31 -271.74,-8.71 -36.5,-20.69 -59.39,-59.03 -60.2,-100.95 -0.17,-10.73 -0.22,-22.58 0,-35.24"
         style="fill:#2c335c;fill-opacity:1;fill-rule:nonzero;stroke:none"
         id="path238" />
      <path
         d="m 3616.96,2666.41 c 14.09,-9.93 32.24,-21.54 58.41,-35.68 13.33,-7.23 27.78,-14.9 42.86,-22.89 23.3,-12.25 48.08,-25.28 72.63,-38.56 l 0.05,-0.05 c 36.39,-19.65 72.22,-39.99 101.98,-59.34 29.72,-19.43 53.32,-37.97 64.99,-54.04 16.84,-23.25 27.75,-173.71 34.75,-371.75 0.26,-6.91 0.49,-13.96 0.76,-21.05 l 0.05,-2.56 c 0.26,-7.23 0.49,-14.59 0.71,-21.99 0.67,-22.27 1.35,-45.02 1.97,-68.19 0.19,-4.89 0.28,-9.78 0.36,-14.72 0.14,-3.69 0.23,-7.36 0.28,-11.04 0.71,-28.37 1.35,-57.27 1.92,-86.5 0.41,-20.01 0.81,-40.17 1.12,-60.41 6.16,-353.08 4.67,-736.01 3.24,-840.152 -76.31,-19.297 -152.66,-33.847 -228.97,-43.668 h -0.05 c -19.88,-2.558 -39.81,-4.808 -59.64,-6.738 -6.65,-0.621 -13.3,-1.211 -19.89,-1.754 -35.78,-3.047 -71.55,-5.117 -107.32,-6.148 -59.12,-1.66 -118.23,-0.442 -177.39,3.539 -40.63,2.75 -81.29,6.832 -121.92,12.261 -73.7,9.829 -147.41,24.008 -221.15,42.508 -1.35,124.202 1.56,655.122 16.42,1052.242 0.27,6.36 0.49,12.65 0.72,18.93 8.88,228.74 21.81,409.14 40.35,434.6 22.35,30.61 82.96,68.41 147.05,104.45 26.08,14.68 52.74,29.04 77.66,42.5 41.11,22.23 77.52,42.11 98.52,56.83 0,0 40.71,-64.05 86.5,-60.06 41.7,3.6 74.17,53.01 79.69,61.8 l 3.34,-2.37"
         style="fill:#f2526a;fill-opacity:1;fill-rule:nonzero;stroke:none"
         id="path240" />
      <path
         d="m 3778.09,1204.94 h -0.03 c -153.74,0.68 -284.97,70.64 -367.99,129.21 -89.78,63.34 -144.19,127.53 -144.74,128.17 -2.62,3.12 -2.21,7.79 0.91,10.42 3.13,2.63 7.79,2.22 10.42,-0.89 0.53,-0.63 53.95,-63.6 142.28,-125.85 81.21,-57.24 209.44,-125.61 359.19,-126.26 4.08,-0.02 7.38,-3.35 7.36,-7.44 -0.02,-4.07 -3.33,-7.36 -7.4,-7.36"
         style="fill:#cc3256;fill-opacity:1;fill-rule:nonzero;stroke:none"
         id="path242" />
      <path
         d="m 3617.86,1152.7 c -133.41,0 -266.44,76.02 -272.5,79.53 -3.53,2.04 -4.74,6.57 -2.69,10.1 2.04,3.54 6.57,4.73 10.1,2.7 1.57,-0.9 158.11,-90.3 296.91,-75.94 4.12,0.47 7.7,-2.54 8.11,-6.6 0.43,-4.06 -2.53,-7.7 -6.59,-8.12 -11.06,-1.14 -22.21,-1.67 -33.34,-1.67"
         style="fill:#cc3256;fill-opacity:1;fill-rule:nonzero;stroke:none"
         id="path244" />
      <path
         d="m 3416.72,2413.76 c -3.49,0 -6.59,2.47 -7.26,6.02 -0.77,4.01 1.87,7.88 5.88,8.65 187.45,35.56 243.95,156.15 244.49,157.36 1.68,3.72 6.07,5.38 9.79,3.69 3.72,-1.68 5.38,-6.06 3.69,-9.78 -2.36,-5.25 -60.28,-128.82 -255.2,-165.81 l -1.39,-0.13"
         style="fill:#cc3256;fill-opacity:1;fill-rule:nonzero;stroke:none"
         id="path246" />
      <path
         d="m 3791.43,2030.97 h -8.94 c -48.57,0 -87.95,39.37 -87.95,87.95 v 112.95 h 184.84 v -112.95 c 0,-48.58 -39.38,-87.95 -87.95,-87.95"
         style="fill:#cc3256;fill-opacity:1;fill-rule:nonzero;stroke:none"
         id="path248" />
      <path
         d="m 2826.98,853.199 -0.17,1.18 c -14.25,84.043 26.23,160.131 43.69,157.701 17.5,-2.47 -14.46,-91.771 1.08,-123.951 15.5,-32.18 35.57,30.359 55.55,68.281 20.71,39.379 19.5,125.33 10.08,186.66 -9.44,61.36 101.75,433.94 102.31,541.91 l 13.56,45.77 49.59,167.6 77.65,262.45 c 0,0 -46.51,198.64 -124.95,181.58 0,0 -41.51,-138.37 -85.9,-294.41 -7.52,-26.5 -15.11,-53.51 -22.62,-80.43 -31.63,-113.14 -61.33,-224.84 -75.14,-291.11 -36.49,-174.98 -39.31,-538.71 -39.31,-538.71 0,0 -64.35,-133.63 -65.88,-193.091 -0.86,-34.008 8.3,-64.27 16.41,-91.43 h 44.05"
         style="fill:#f8a499;fill-opacity:1;fill-rule:nonzero;stroke:none"
         id="path250" />
      <path
         d="m 2946.85,1967.54 106.23,-236.78 49.59,167.59 -133.2,149.62 c -7.52,-26.5 -15.11,-53.51 -22.62,-80.43"
         style="fill:#f57e70;fill-opacity:1;fill-rule:nonzero;stroke:none"
         id="path252" />
      <path
         d="m 2941.58,2038.07 c 46.59,-79.92 93.99,-159.39 141.18,-239 15.55,52.07 31.66,102.06 46.78,148.01 l 0.13,0.34 c 6.04,18.38 11.94,36.1 17.59,53.03 l 0.31,0.87 c 1.95,5.96 3.86,11.81 5.81,17.55 v 0.04 c 22.55,68.14 40,122.3 45,153.87 13.47,84.99 -18.06,235.79 -64.82,278.67 l -5.32,4.05 c -3.02,1.8 -4.17,4.49 -7.56,1.01 -15.93,-16.38 -54.46,-71.57 -74.39,-122.04 -2.57,-6.42 -5.17,-13.11 -7.86,-19.93 -28.88,-74.23 -64.19,-170.77 -96.85,-276.47"
         style="fill:#f2526a;fill-opacity:1;fill-rule:nonzero;stroke:none"
         id="path254" />
      <path
         d="m 3075.67,1752.1 c 15.37,63.53 34.7,134.15 53.85,195 l 0.13,0.34 c 5.91,18.81 11.81,36.66 17.6,53.03 l 0.3,0.87 c 1.78,5.16 3.6,10.16 5.38,15.03 l 0.44,2.52 v 0.04 c 0,2.91 -1.83,5.64 -4.74,6.73 -3.78,1.34 -7.95,-0.56 -9.29,-4.34 -19.63,-53.51 -42.83,-130.55 -62.72,-206.12 -0.34,-20.93 -0.64,-42 -0.95,-63.1"
         style="fill:#cc3256;fill-opacity:1;fill-rule:nonzero;stroke:none"
         id="path256" />
      <path
         d="m 3933.51,2018.91 v -0.04 l 0.45,-2.51 c 1.79,-4.86 3.59,-9.84 5.39,-15 l 0.31,-0.9 c 5.79,-16.38 11.67,-34.2 17.6,-53.01 l 0.12,-0.36 c 14.64,-46.59 29.46,-98.97 42.42,-149.47 -0.31,20.24 -0.72,40.4 -1.12,60.42 -16.92,61 -35.23,119.89 -51.12,163.3 -1.35,3.77 -5.53,5.65 -9.3,4.3 -2.91,-1.07 -4.75,-3.81 -4.75,-6.73"
         style="fill:#cc3256;fill-opacity:1;fill-rule:nonzero;stroke:none"
         id="path258" />
      <path
         d="m 4283.72,1853.09 v 0 c -41.09,87.71 -323.15,597.87 -323.15,597.87 -53.21,-31.67 36.83,-533.51 36.83,-533.51 l 111.91,-285.67 c 25.63,-67.45 105.51,-95.83 168.05,-59.83 1.07,0.62 2.14,1.25 3.22,1.89 107.87,64.07 3.14,279.25 3.14,279.25"
         style="fill:#f8a499;fill-opacity:1;fill-rule:nonzero;stroke:none"
         id="path260" />
      <path
         d="m 3960.57,2450.96 260.61,-372.62 c 0,0 -103.6,-225.87 -222.55,-217.3 0,0 -146.66,513.51 -38.06,589.92"
         style="fill:#f2526a;fill-opacity:1;fill-rule:nonzero;stroke:none"
         id="path262" />
      <path
         d="m 4290.26,2087.22 -3.27,-37.68 -5.58,-63.5 -1.08,-12.19 -4.68,-54.04 -5.19,-58.77 -0.22,-2.76 -5.86,-67.34 -5.2,-60.01 -6.48,-74.45 h -206.94 l -1.52,17.04 -6.26,72.42 -3.83,43.65 -6.21,71.45 -0.11,1.2 -3.84,43.53 -5.86,68.08 -0.45,4.9 -3.78,43.32 -5.7,65.15 h 282.06"
         style="fill:#2c335c;fill-opacity:1;fill-rule:nonzero;stroke:none"
         id="path264" />
      <path
         d="m 4280.33,1973.85 -4.68,-54.04 -5.19,-58.77 h -242.52 l -0.11,1.2 -3.84,43.53 -5.86,68.08 h 262.2"
         style="fill:#ffffff;fill-opacity:1;fill-rule:nonzero;stroke:none"
         id="path266" />
      <path
         d="m 4304.74,2087.22 h -311.01 v 55.07 h 311.01 v -55.07"
         style="fill:#324f89;fill-opacity:1;fill-rule:nonzero;stroke:none"
         id="path268" />
      <path
         d="m 4281.31,2142.29 h -264.14 v 31.99 c 0,8.16 6.62,14.78 14.78,14.78 h 234.57 c 8.17,0 14.79,-6.62 14.79,-14.77 v -32"
         style="fill:#2c335c;fill-opacity:1;fill-rule:nonzero;stroke:none"
         id="path270" />
      <path
         d="m 4297.32,2047.79 c 0,0 -39.2,-2.62 -95.4,-15.76 -28.54,-6.68 -90.55,-44.07 -64.09,-57.81 20.9,-10.86 114.79,15.4 133.36,6.87 0,0 -44.4,-9.1 -82.22,-14.93 -34.19,-5.28 -87.03,-25.22 -66.47,-36.13 19.43,-10.31 68.14,-6.09 85.49,-6.54 23.04,-0.61 52.2,-0.21 52.2,-0.21 0,0 -36.77,-6.12 -80.09,-19.2 -19.83,-5.98 -77.03,-11.76 -58.85,-37.6 9.12,-12.96 86.35,-3.61 125.14,-7.08 0,0 -71.45,-12.1 -92.17,-31.52 -16.39,-15.36 5.94,-17.44 34.76,-19.5 37.21,-2.66 48.62,0 71.21,0 22.58,0 60.58,16 61.39,39.18 0.81,23.16 -12.13,32.87 -8.08,47.42 4.04,14.56 13.43,36.83 8.12,49.6 -5.32,12.77 -3.72,23.51 1.59,40.15 5.21,16.33 -4.07,56.31 -25.89,63.06"
         style="fill:#f8a499;fill-opacity:1;fill-rule:nonzero;stroke:none"
         id="path272" />
      <path
         d="m 3560.88,2973.34 c 0,-31.31 25.48,-56.79 56.8,-56.79 31.3,0 56.78,25.48 56.78,56.79 0,31.32 -25.48,56.8 -56.78,56.8 -31.32,0 -56.8,-25.48 -56.8,-56.8 z m -10.49,0 c 0,37.1 30.19,67.28 67.29,67.28 37.1,0 67.28,-30.18 67.28,-67.28 0,-37.09 -30.18,-67.28 -67.28,-67.28 -37.1,0 -67.29,30.19 -67.29,67.28"
         style="fill:#ffffff;fill-opacity:1;fill-rule:nonzero;stroke:none"
         id="path274" />
      <path
         d="m 3376.98,2973.34 c 0,-31.31 25.47,-56.79 56.79,-56.79 31.32,0 56.8,25.48 56.8,56.79 0,31.32 -25.48,56.8 -56.8,56.8 -31.32,0 -56.79,-25.48 -56.79,-56.8 z m -10.49,0 c 0,37.1 30.18,67.28 67.28,67.28 37.1,0 67.28,-30.18 67.28,-67.28 0,-37.09 -30.18,-67.28 -67.28,-67.28 -37.1,0 -67.28,30.19 -67.28,67.28"
         style="fill:#ffffff;fill-opacity:1;fill-rule:nonzero;stroke:none"
         id="path276" />
      <path
         d="m 3738.06,3024.2 c 0,2.88 -2.33,5.26 -5.22,5.29 -36.49,0.33 -61.74,-24.31 -62.96,-25.52 -2.05,-2.04 -2.06,-5.36 -0.02,-7.41 1.03,-1.03 2.38,-1.55 3.72,-1.55 1.34,0 2.68,0.51 3.7,1.52 0.26,0.26 23.23,22.53 55.43,22.41 2.94,-0.01 5.35,2.32 5.35,5.26"
         style="fill:#ffffff;fill-opacity:1;fill-rule:nonzero;stroke:none"
         id="path278" />
      <path
         d="m 3379.49,3004.65 c -1.51,0.98 -28.91,18.65 -59.66,24.45 -3.23,0.61 -6.23,-1.88 -6.23,-5.17 0,-2.5 1.75,-4.68 4.2,-5.14 28.86,-5.48 55.61,-22.7 55.96,-22.93 0.88,-0.57 1.87,-0.85 2.86,-0.85 1.71,0 3.39,0.84 4.4,2.38 1.58,2.42 0.89,5.67 -1.53,7.26"
         style="fill:#ffffff;fill-opacity:1;fill-rule:nonzero;stroke:none"
         id="path280" />
      <path
         d="m 3497.35,2988.46 c 0.12,0.15 12.58,17.01 28.97,17.01 16.22,0 27.48,-16.82 27.59,-16.99 l 8.79,5.73 c -0.59,0.89 -14.43,21.75 -36.38,21.75 -21.81,0 -36.85,-20.5 -37.47,-21.37 l 8.5,-6.13"
         style="fill:#ffffff;fill-opacity:1;fill-rule:nonzero;stroke:none"
         id="path282" />
      <path
         d="m 1763.96,2250.81 133.18,-484.25 2.62,-8.84 c 0,-2.18 0.08,-4.46 0.16,-6.88 4.85,-117.38 112.77,-480.98 103.42,-541.82 -9.54,-62.13 -10.75,-149.13 10.2,-189.01 20.22,-38.401 40.55,-101.701 56.27,-69.131 15.72,32.609 -16.62,123.011 1.06,125.481 17.71,2.5 58.69,-74.57 44.22,-159.649 -14.43,-85.09 36.72,-107.879 32.84,-65.891 -3.83,42.032 29.88,93.102 28.24,157.27 -1.57,60.21 -66.71,195.49 -66.71,195.49 0,0 -2.85,368.29 -39.77,545.46 -36.95,177.17 -183.7,733.61 -183.7,733.61 -82.91,-87.9 -122.03,-231.84 -122.03,-231.84"
         style="fill:#f8a499;fill-opacity:1;fill-rule:nonzero;stroke:none"
         id="path284" />
      <path
         d="m 1897.23,1766.28 2.53,-8.55 c 0,-2.11 0.07,-4.31 0.15,-6.66 25.75,8.85 50.48,16.34 68.71,19.78 4.08,0.76 6.84,4.73 6.05,8.86 -0.76,4.19 -4.73,6.91 -8.85,6.04 -18.53,-3.51 -43.07,-10.77 -68.59,-19.47"
         style="fill:#f57e70;fill-opacity:1;fill-rule:nonzero;stroke:none"
         id="path286" />
      <path
         d="m 1935.93,855.211 c -5.12,32.91 -10.13,66.019 -14.97,98.809 -3.22,21.98 -6.36,43.761 -9.47,65.26 -11.76,82.25 -22.27,160.04 -30.7,224.58 -3.21,24.52 -6.1,47.16 -8.72,67.35 -8.18,64.43 -12.99,104.45 -12.99,104.45 l -361.92,-13.69 -363.02,13.69 c 0,0 -9.36,-79.19 -24.34,-193.99 -2.73,-20.9 -5.66,-42.95 -8.73,-65.96 -8.06,-60.24 -17.27,-126.78 -27.18,-194.909 -0.15,-1.012 -0.3,-2 -0.45,-3 -3.1,-21.231 -6.25,-42.602 -9.5,-63.992 l -0.15,-0.848 v -0.031 c -1.9,-12.59 -3.81,-25.18 -5.74,-37.719 h 877.88"
         style="fill:#2c335c;fill-opacity:1;fill-rule:nonzero;stroke:none"
         id="path288" />
      <path
         d="m 1217.56,1306.96 c 0,-18.84 -15.27,-34.11 -34.11,-34.11 -18.84,0 -34.11,15.27 -34.11,34.11 0,18.84 15.27,34.11 34.11,34.11 18.84,0 34.11,-15.27 34.11,-34.11"
         style="fill:#201f39;fill-opacity:1;fill-rule:nonzero;stroke:none"
         id="path290" />
      <path
         d="m 1302.21,1174.81 c 0,-18.83 -15.28,-34.11 -34.11,-34.11 -18.84,0 -34.12,15.28 -34.12,34.11 0,18.84 15.28,34.12 34.12,34.12 18.83,0 34.11,-15.28 34.11,-34.12"
         style="fill:#201f39;fill-opacity:1;fill-rule:nonzero;stroke:none"
         id="path292" />
      <path
         d="m 1468.75,1243.03 c 0,-18.84 -15.28,-34.1 -34.12,-34.1 -18.83,0 -34.11,15.26 -34.11,34.1 0,18.84 15.28,34.12 34.11,34.12 18.84,0 34.12,-15.28 34.12,-34.12"
         style="fill:#201f39;fill-opacity:1;fill-rule:nonzero;stroke:none"
         id="path294" />
      <path
         d="m 1205.9,1034.47 c 0,-18.85 -15.27,-34.11 -34.11,-34.11 -18.85,0 -34.11,15.26 -34.11,34.11 0,18.84 15.26,34.1 34.11,34.1 18.84,0 34.11,-15.26 34.11,-34.1"
         style="fill:#201f39;fill-opacity:1;fill-rule:nonzero;stroke:none"
         id="path296" />
      <path
         d="m 1414,1049.05 c 0,-18.84 -15.27,-34.11 -34.11,-34.11 -18.84,0 -34.11,15.27 -34.11,34.11 0,18.84 15.27,34.11 34.11,34.11 18.84,0 34.11,-15.27 34.11,-34.11"
         style="fill:#201f39;fill-opacity:1;fill-rule:nonzero;stroke:none"
         id="path298" />
      <path
         d="m 1131.99,1189.67 c 0,-17.76 -13.54,-32.37 -30.92,-33.96 3.07,23.01 6,45.06 8.73,65.96 12.98,-4.85 22.19,-17.31 22.19,-32"
         style="fill:#201f39;fill-opacity:1;fill-rule:nonzero;stroke:none"
         id="path300" />
      <path
         d="m 1752.48,855.211 c -3.06,15.699 -16.87,27.551 -33.47,27.551 -16.59,0 -30.41,-11.852 -33.47,-27.551 h 66.94"
         style="fill:#201f39;fill-opacity:1;fill-rule:nonzero;stroke:none"
         id="path302" />
      <path
         d="m 1737.01,1034.47 c 0,-18.85 -15.28,-34.11 -34.11,-34.11 -18.84,0 -34.11,15.26 -34.11,34.11 0,18.84 15.27,34.1 34.11,34.1 18.83,0 34.11,-15.26 34.11,-34.1"
         style="fill:#201f39;fill-opacity:1;fill-rule:nonzero;stroke:none"
         id="path304" />
      <path
         d="m 1920.96,954.02 c -4.1,-1.731 -8.65,-2.688 -13.39,-2.688 -18.82,0 -34.1,15.27 -34.1,34.098 0,18.83 15.28,34.1 34.1,34.1 1.34,0 2.63,-0.07 3.92,-0.25 3.11,-21.499 6.25,-43.28 9.47,-65.26"
         style="fill:#201f39;fill-opacity:1;fill-rule:nonzero;stroke:none"
         id="path306" />
      <path
         d="m 1093.45,926.73 c 0,-17.308 -12.91,-31.621 -29.66,-33.769 l 0.15,0.848 c 3.25,21.382 6.4,42.761 9.5,63.992 11.8,-5.403 20.01,-17.27 20.01,-31.071"
         style="fill:#201f39;fill-opacity:1;fill-rule:nonzero;stroke:none"
         id="path308" />
      <path
         d="m 1319.68,892.488 c 0,-18.84 -15.27,-34.109 -34.1,-34.109 -18.85,0 -34.12,15.269 -34.12,34.109 0,18.844 15.27,34.114 34.12,34.114 18.83,0 34.1,-15.27 34.1,-34.114"
         style="fill:#201f39;fill-opacity:1;fill-rule:nonzero;stroke:none"
         id="path310" />
      <path
         d="m 1502.86,926.602 c 0,-18.852 -15.28,-34.114 -34.11,-34.114 -18.84,0 -34.12,15.262 -34.12,34.114 0,18.839 15.28,34.097 34.12,34.097 18.83,0 34.11,-15.258 34.11,-34.097"
         style="fill:#201f39;fill-opacity:1;fill-rule:nonzero;stroke:none"
         id="path312" />
      <path
         d="m 1585.31,1106.59 c 0,-18.84 -15.28,-34.11 -34.11,-34.11 -18.84,0 -34.12,15.27 -34.12,34.11 0,18.84 15.28,34.11 34.12,34.11 18.83,0 34.11,-15.27 34.11,-34.11"
         style="fill:#201f39;fill-opacity:1;fill-rule:nonzero;stroke:none"
         id="path314" />
      <path
         d="m 1880.79,1243.86 c -2.36,-0.56 -4.8,-0.81 -7.32,-0.81 -18.87,0 -34.1,15.27 -34.1,34.1 0,18.34 14.5,33.36 32.7,34.06 2.62,-20.19 5.51,-42.83 8.72,-67.35"
         style="fill:#201f39;fill-opacity:1;fill-rule:nonzero;stroke:none"
         id="path316" />
      <path
         d="m 1702.9,1243.03 c 0,-18.84 -15.27,-34.1 -34.11,-34.1 -18.84,0 -34.12,15.26 -34.12,34.1 0,18.84 15.28,34.12 34.12,34.12 18.84,0 34.11,-15.28 34.11,-34.12"
         style="fill:#201f39;fill-opacity:1;fill-rule:nonzero;stroke:none"
         id="path318" />
      <path
         d="m 1827.83,1121.46 c 0,-18.83 -15.27,-34.11 -34.11,-34.11 -18.84,0 -34.11,15.28 -34.11,34.11 0,18.84 15.27,34.12 34.11,34.12 18.84,0 34.11,-15.28 34.11,-34.12"
         style="fill:#201f39;fill-opacity:1;fill-rule:nonzero;stroke:none"
         id="path320" />
      <path
         d="m 1875.23,1406.71 c -190.93,-124.65 -541.49,-114.88 -761.79,0 21.05,131.08 48.75,262.31 42.8,436.78 -0.67,19.12 -1.48,38.13 -2.45,56.96 -0.85,16.39 -1.81,32.66 -2.84,48.75 -19.02,290.23 -68.54,527.55 -44.2,558.21 10.61,13.42 28.33,27.92 50.19,42.76 8.58,5.84 17.75,11.75 27.44,17.67 22.86,13.95 48.27,28 73.79,41.69 60.55,32.33 122.03,62.32 152.83,82.81 30.55,-13.31 54.89,-20.6 81.11,-20.46 l 2.26,0.08 2.19,-0.08 c 26.22,-0.14 50.55,7.15 81.15,20.46 28.58,-19.01 82.4,-45.53 137.32,-74.45 40.36,-21.27 81.3,-43.83 113.19,-65.73 20.86,-14.31 37.91,-28.37 48.34,-41.54 12.06,-15.2 6.99,-81.85 -3.33,-180.6 -10.21,-97.17 -25.49,-225.48 -34.73,-366.5 -2.55,-39.17 -4.66,-79.31 -6.07,-120.03 -5.92,-174.47 21.75,-305.7 42.8,-436.78"
         style="fill:#f2526a;fill-opacity:1;fill-rule:nonzero;stroke:none"
         id="path322" />
      <path
         d="m 1741.21,1543.3 h -0.03 c -153.74,0.67 -284.97,70.64 -367.99,129.21 -89.78,63.34 -144.19,127.53 -144.73,128.17 -2.63,3.13 -2.22,7.79 0.9,10.42 3.13,2.63 7.79,2.23 10.42,-0.89 0.53,-0.63 53.96,-63.6 142.28,-125.85 81.21,-57.24 209.44,-125.61 359.19,-126.26 4.08,-0.02 7.38,-3.35 7.36,-7.44 -0.02,-4.07 -3.33,-7.36 -7.4,-7.36"
         style="fill:#cc3256;fill-opacity:1;fill-rule:nonzero;stroke:none"
         id="path324" />
      <path
         d="m 1580.99,1491.05 c -133.42,0 -266.45,76.03 -272.5,79.54 -3.54,2.05 -4.75,6.57 -2.7,10.1 2.04,3.54 6.57,4.74 10.1,2.7 1.57,-0.9 158.11,-90.3 296.91,-75.94 4.12,0.47 7.7,-2.54 8.12,-6.6 0.42,-4.06 -2.53,-7.7 -6.59,-8.12 -11.07,-1.14 -22.21,-1.68 -33.34,-1.68"
         style="fill:#cc3256;fill-opacity:1;fill-rule:nonzero;stroke:none"
         id="path326" />
      <path
         d="m 1462.87,2318.45 c -3.49,0 -6.59,2.47 -7.26,6.01 -0.76,4.02 1.88,7.89 5.88,8.66 187.45,35.56 243.94,156.15 244.5,157.36 1.68,3.72 6.06,5.38 9.79,3.69 3.72,-1.68 5.37,-6.06 3.69,-9.79 -2.37,-5.24 -60.29,-128.81 -255.21,-165.81 l -1.39,-0.12"
         style="fill:#cc3256;fill-opacity:1;fill-rule:nonzero;stroke:none"
         id="path328" />
      <path
         d="m 1715.02,2617.88 c -37.2,-84.86 -124.6,-199.96 -243.55,-179.42 -115.18,19.91 -173.87,108.06 -213.3,171.07 60.57,32.34 122.04,62.3 152.83,82.8 30.55,-13.29 54.9,-20.58 81.1,-20.46 l 2.26,0.08 2.21,-0.08 c 26.2,-0.12 50.55,7.17 81.14,20.46 28.58,-19 82.41,-45.51 137.31,-74.45"
         style="fill:#f8a499;fill-opacity:1;fill-rule:nonzero;stroke:none"
         id="path330" />
      <path
         d="m 1496.57,2668.9 v -0.11 l -2.2,0.06 z"
         style="fill:#2c335c;fill-opacity:1;fill-rule:nonzero;stroke:none"
         id="path332" />
      <path
         d="m 1686.77,3282.37 c 0,0 90,-139.4 80.13,-284.59 -9.86,-145.2 13.27,-312.81 -116.66,-305.45 -129.91,7.37 -361.66,-52.08 -435.32,61 -73.66,113.09 471.85,529.04 471.85,529.04"
         style="fill:#2c335c;fill-opacity:1;fill-rule:nonzero;stroke:none"
         id="path334" />
      <path
         d="m 1305.29,3027.04 c 0,0 -35.86,47.81 -62.52,8.27 -26.67,-39.53 11.03,-156.31 76.31,-127.81 l -13.79,119.54"
         style="fill:#f57e70;fill-opacity:1;fill-rule:nonzero;stroke:none"
         id="path336" />
      <path
         d="m 1304.83,2943.59 c -2.41,0 -4.62,1.6 -5.31,4.03 -10.12,36.05 -47.47,50.67 -47.85,50.81 -2.84,1.09 -4.27,4.28 -3.19,7.12 1.08,2.84 4.26,4.28 7.11,3.2 1.74,-0.65 42.9,-16.63 54.55,-58.15 0.83,-2.93 -0.89,-5.98 -3.82,-6.8 l -1.49,-0.21"
         style="fill:#f25065;fill-opacity:1;fill-rule:nonzero;stroke:none"
         id="path338" />
      <path
         d="m 1267.13,2961.75 c -1.03,0 -2.06,0.29 -2.98,0.88 -2.57,1.65 -3.31,5.07 -1.65,7.63 0.27,0.42 6.88,10.5 20.7,16.69 2.77,1.25 6.04,0 7.29,-2.78 1.24,-2.78 0,-6.05 -2.78,-7.29 -10.69,-4.79 -15.89,-12.52 -15.94,-12.6 -1.06,-1.63 -2.83,-2.53 -4.64,-2.53"
         style="fill:#f25065;fill-opacity:1;fill-rule:nonzero;stroke:none"
         id="path340" />
      <path
         d="m 1674.85,3027.04 c 0,0 35.86,47.81 62.52,8.27 26.67,-39.53 -11.03,-156.31 -76.32,-127.81 l 13.8,119.54"
         style="fill:#f57e70;fill-opacity:1;fill-rule:nonzero;stroke:none"
         id="path342" />
      <path
         d="m 1675.31,2943.59 c 2.41,0 4.63,1.6 5.31,4.03 10.12,36.05 47.47,50.67 47.84,50.81 2.84,1.09 4.28,4.28 3.2,7.12 -1.08,2.84 -4.26,4.28 -7.1,3.2 -1.75,-0.65 -42.91,-16.63 -54.56,-58.15 -0.83,-2.93 0.88,-5.98 3.82,-6.8 l 1.49,-0.21"
         style="fill:#f25065;fill-opacity:1;fill-rule:nonzero;stroke:none"
         id="path344" />
      <path
         d="m 1713.01,2961.75 c 1.03,0 2.06,0.29 2.99,0.88 2.55,1.65 3.29,5.07 1.65,7.63 -0.28,0.42 -6.89,10.5 -20.71,16.69 -2.77,1.25 -6.04,0 -7.29,-2.78 -1.24,-2.78 0,-6.05 2.78,-7.29 10.69,-4.79 15.89,-12.52 15.94,-12.6 1.05,-1.63 2.83,-2.53 4.64,-2.53"
         style="fill:#f25065;fill-opacity:1;fill-rule:nonzero;stroke:none"
         id="path346" />
      <path
         d="m 1578.34,2808.46 v -116.13 c 0,0 -34.63,-59.14 -81.46,-63.17 -46.79,-4.08 -88.37,50.92 -88.37,50.92 v 120.21 l 169.83,8.17"
         style="fill:#f8a499;fill-opacity:1;fill-rule:nonzero;stroke:none"
         id="path348" />
      <path
         d="m 1578.34,2808.46 v -51.53 c -31.42,-34.87 -87.22,-47.23 -169.81,-35.04 l -0.02,78.4 169.83,8.17"
         style="fill:#f57e70;fill-opacity:1;fill-rule:nonzero;stroke:none"
         id="path350" />
      <path
         d="m 1700.78,3106.7 c -2.15,-45.13 -6.46,-101.56 -15.06,-146.69 -2.16,-11.26 -4.58,-21.85 -7.29,-31.34 -24.44,-85.56 -85.56,-232.31 -256.7,-171.18 -75.58,26.97 -110.61,111.16 -126.22,196.78 -10.59,58.15 -12.19,116.9 -11.42,158.88 0.83,42.87 24.22,82.04 61.51,103.17 101.02,57.26 207.6,35.92 277.77,8.94 48.72,-18.7 79.89,-66.53 77.41,-118.56"
         style="fill:#f8a499;fill-opacity:1;fill-rule:nonzero;stroke:none"
         id="path352" />
      <path
         d="m 1414.71,3020.22 c 0,-12.39 -6.39,-22.44 -14.28,-22.44 -7.88,0 -14.26,10.05 -14.26,22.44 0,12.4 6.38,22.45 14.26,22.45 7.89,0 14.28,-10.05 14.28,-22.45"
         style="fill:#2c335c;fill-opacity:1;fill-rule:nonzero;stroke:none"
         id="path354" />
      <path
         d="m 1590.92,3020.22 c 0,-12.39 -6.38,-22.44 -14.27,-22.44 -7.88,0 -14.27,10.05 -14.27,22.44 0,12.4 6.39,22.45 14.27,22.45 7.89,0 14.27,-10.05 14.27,-22.45"
         style="fill:#2c335c;fill-opacity:1;fill-rule:nonzero;stroke:none"
         id="path356" />
      <path
         d="m 1372.17,3087.05 c 11.85,3.35 35.79,9.07 61.04,9.14 6.65,0.02 11.74,-5.89 10.56,-12.43 l -0.03,-0.16 c -0.94,-5.23 -5.61,-8.92 -10.91,-8.67 -17.18,0.8 -62.29,-1.62 -83.58,-10.25 -0.44,3.7 1.75,7.76 4.85,11.36 4.7,5.45 11.14,9.05 18.07,11.01"
         style="fill:#2c335c;fill-opacity:1;fill-rule:nonzero;stroke:none"
         id="path358" />
      <path
         d="m 1602.74,3086.59 c -11.86,3.35 -35.79,9.07 -61.05,9.14 -6.64,0.02 -11.73,-5.89 -10.55,-12.43 l 0.03,-0.16 c 0.93,-5.22 5.61,-8.92 10.91,-8.67 17.18,0.8 62.29,-1.62 83.58,-10.25 0.44,3.7 -1.75,7.76 -4.85,11.36 -4.7,5.45 -11.15,9.05 -18.07,11.01"
         style="fill:#2c335c;fill-opacity:1;fill-rule:nonzero;stroke:none"
         id="path360" />
      <path
         d="m 1491.99,2917.81 c -4.23,0 -8.46,0.75 -12,2.86 -3.22,1.94 -7.23,5.84 -8.02,13.47 -2.1,20.28 3.09,83.84 3.31,86.53 0.25,3.04 2.91,5.31 5.96,5.05 3.03,-0.25 5.29,-2.91 5.04,-5.95 -0.05,-0.65 -5.33,-65.23 -3.34,-84.49 0.35,-3.35 1.72,-4.54 2.71,-5.14 5.18,-3.1 17.15,0.07 22.13,2.09 2.83,1.16 6.05,-0.21 7.2,-3.02 1.14,-2.82 -0.2,-6.04 -3.03,-7.19 -1.42,-0.58 -10.66,-4.21 -19.96,-4.21"
         style="fill:#f57e70;fill-opacity:1;fill-rule:nonzero;stroke:none"
         id="path362" />
      <path
         d="m 1421.93,2882.97 c 4.16,-20.98 18.03,-59.59 64.73,-59.59 46.81,0 59.94,35.29 64.45,59.59 h -129.18"
         style="fill:#ffffff;fill-opacity:1;fill-rule:nonzero;stroke:none"
         id="path364" />
      <path
         d="m 1485.99,2791.19 c -13.48,0 -25.38,7.26 -25.88,7.57 -2.59,1.6 -3.39,5 -1.79,7.59 1.6,2.59 4.99,3.39 7.58,1.8 0.1,-0.05 9.81,-5.92 20.09,-5.92 11.12,0 21.09,5.89 21.19,5.95 2.61,1.56 5.99,0.72 7.57,-1.89 1.56,-2.6 0.73,-5.98 -1.87,-7.55 -0.51,-0.31 -12.61,-7.55 -26.89,-7.55"
         style="fill:#f57e70;fill-opacity:1;fill-rule:nonzero;stroke:none"
         id="path366" />
      <path
         d="m 1722.99,3115.69 c -1.77,-5.03 -6.7,-8.24 -13.28,-10.17 0.48,-12.17 -0.8,-26.8 -2,-40.83 -6.81,-79.74 -26.92,-93.74 -31.47,-74.03 -2.99,13.1 -2.81,88.2 -1.37,112.68 -15.76,1.03 -29.22,3.66 -29.22,3.66 l -18.49,77.42 -6.48,-76.46 c -27.74,-9.65 -92.46,5.81 -92.46,5.81 l -21.72,76.3 -13.42,-73.41 c -41.61,-20.27 -93.62,-6.77 -93.62,-6.77 l -11.94,79.19 -27.59,-79.19 c 0,0 -88.77,-31.85 -89.73,0 -0.6,18.53 12.98,70.72 24.44,111.15 12.5,44.08 41.46,81.33 80.63,102.34 110.12,59.1 226.55,27.66 266.5,3.81 84.69,-50.56 81.22,-211.5 81.22,-211.5"
         style="fill:#2c335c;fill-opacity:1;fill-rule:nonzero;stroke:none"
         id="path368" />
      <path
         d="m 1321.64,3276.48 c 0,0 -75.63,-86.91 -99.68,-242.15 -24.04,-155.24 -57.33,-269.94 36.21,-321.19 101.24,-55.48 120.75,38.99 119.29,69.92 -1.46,30.92 -115.84,134.75 -58.38,372.81 18.56,76.86 2.56,120.61 2.56,120.61"
         style="fill:#2c335c;fill-opacity:1;fill-rule:nonzero;stroke:none"
         id="path370" />
      <path
         d="m 1702.09,2904.89 c 0,-7.14 -5.78,-12.93 -12.92,-12.93 -7.14,0 -12.93,5.79 -12.93,12.93 0,7.14 5.79,12.92 12.93,12.92 7.14,0 12.92,-5.78 12.92,-12.92"
         style="fill:#ffffff;fill-opacity:1;fill-rule:nonzero;stroke:none"
         id="path372" />
      <path
         d="m 1150.95,1949.2 c -19.02,290.23 -68.54,527.55 -44.2,558.21 10.61,13.42 28.33,27.92 50.19,42.76 22.27,-104.42 78.48,-418.67 -5.99,-600.97"
         style="fill:#f8a499;fill-opacity:1;fill-rule:nonzero;stroke:none"
         id="path374" />
      <path
         d="m 1873.23,2330.02 c -10.21,-97.17 -25.49,-225.48 -34.73,-366.5 -74.86,181.86 -32.51,483.08 -10.28,588.64 20.86,-14.31 37.91,-28.37 48.34,-41.54 12.06,-15.2 6.99,-81.85 -3.33,-180.6"
         style="fill:#f8a499;fill-opacity:1;fill-rule:nonzero;stroke:none"
         id="path376" />
      <path
         d="m 1192.36,2198.26 -84.21,-270.49 -92.21,-257.15 c -14.83,-53.82 -74.256,-81.54 -125.018,-58.35 l -2.664,1.2 c -87.711,41.47 -39.348,213.48 -39.348,213.48 l 16.563,1.29 c 6.754,18.88 24.961,66.93 48.144,127.28 2.801,7.42 5.731,15.06 8.707,22.79 4.926,12.83 10.035,26.06 15.235,39.65 7.414,19.19 15.054,39 22.777,58.93 56.854,147.46 103.944,307.47 103.944,307.47 l 39.25,116.51 88.83,-302.61"
         style="fill:#f8a499;fill-opacity:1;fill-rule:nonzero;stroke:none"
         id="path378" />
      <path
         d="m 955.824,1771.88 -1.058,-0.05 c -3.371,-0.02 -6.336,2.4 -6.868,5.82 -12.82,81.54 -25.73,141.76 -34.281,177.89 2.813,7.4 5.762,15.03 8.711,22.75 8.016,-31.83 23.692,-99.65 39.258,-198.48 0.582,-3.77 -1.981,-7.3 -5.762,-7.93"
         style="fill:#f57e70;fill-opacity:1;fill-rule:nonzero;stroke:none"
         id="path380" />
      <path
         d="m 943.27,1767.89 c 0,0 -12.079,195.96 -53.883,237.63 -41.813,41.68 -79.989,57.58 -119.199,56.15 -39.215,-1.41 -76.102,-6.27 -73.684,-22.4 0,0 -90.074,13.6 -130.293,-9.74 -40.219,-23.34 119.117,-43.78 166.422,-45.01 47.305,-1.23 72.289,-27.65 74.203,-55.86 1.914,-28.19 29.211,-214.93 29.211,-214.93 l 107.223,54.16"
         style="fill:#f8a499;fill-opacity:1;fill-rule:nonzero;stroke:none"
         id="path382" />
      <path
         d="m 990.98,2026.58 -597.031,-3.99 c -22.457,-0.15 -40.781,17.93 -40.929,40.38 v 0.35 c -0.153,22.46 17.925,40.78 40.382,40.94 l 597.032,3.99 c 22.456,0.15 40.776,-17.93 40.926,-40.39 v -0.35 c 0.15,-22.45 -17.93,-40.77 -40.38,-40.93"
         style="fill:#201f39;fill-opacity:1;fill-rule:nonzero;stroke:none"
         id="path384" />
      <path
         d="M 353.434,2022.31 222.73,2498.97 c -7.339,26.77 12.696,53.23 40.458,53.41 l 280.566,1.88 c 18.934,0.13 35.637,-12.35 40.875,-30.54 l 143.75,-498.9 -374.945,-2.51"
         style="fill:#2c335c;fill-opacity:1;fill-rule:nonzero;stroke:none"
         id="path386" />
      <path
         d="m 584.648,2523.71 142.555,-494.77 32.059,0.21 -142.551,494.78 c -5.281,18.19 -21.953,30.69 -40.891,30.57 l -32.058,-0.22 c 18.933,0.13 35.609,-12.37 40.886,-30.57"
         style="fill:#201f39;fill-opacity:1;fill-rule:nonzero;stroke:none"
         id="path388" />
      <path
         d="m 514.223,2267.35 c 7.5,-31.45 -11.953,-57.12 -43.446,-57.32 -31.496,-0.22 -63.109,25.11 -70.605,56.55 -7.5,31.46 11.953,57.12 43.445,57.33 31.496,0.21 63.113,-25.11 70.606,-56.56"
         style="fill:#3e6ca7;fill-opacity:1;fill-rule:nonzero;stroke:none"
         id="path390" />
      <path
         d="M 4437.72,782.922 V 776 c 0,-39.941 -32.38,-72.32 -72.34,-72.32 H 613.402 c -39.957,0 -72.316,32.379 -72.316,72.32 v 6.922 c 0,39.93 32.359,72.316 72.316,72.316 H 4365.38 c 39.96,0 72.34,-32.386 72.34,-72.316"
         style="fill:#324f89;fill-opacity:1;fill-rule:nonzero;stroke:none"
         id="path392" />
      <path
         d="m 4437.72,782.922 v -3.461 H 541.086 v 3.461 c 0,39.93 32.359,72.316 72.316,72.316 H 4365.38 c 39.96,0 72.34,-32.386 72.34,-72.316"
         style="fill:#3e6ca7;fill-opacity:1;fill-rule:nonzero;stroke:none"
         id="path394" />
      <path
         d="m 2601.04,345.34 c -4.32,-4.418 -8.03,-9.301 -11.08,-14.531 l -4.66,2.41 c -0.66,2.98 -3.48,5.031 -6.58,4.672 -3.31,-0.391 -5.68,-3.391 -5.29,-6.7 0.39,-3.312 3.39,-5.679 6.7,-5.293 l 1.83,0.532 4.51,-2.348 c -2.51,-5.543 -4.32,-11.383 -5.39,-17.441 l 7.46,-1.309 c 2.31,13.059 8.5,25.059 17.92,34.719 l -5.42,5.289"
         style="fill:#1e222c;fill-opacity:1;fill-rule:nonzero;stroke:none"
         id="path396" />
      <path
         d="m 2655.92,368.371 c -1.71,0 -3.41,-0.07 -5.1,-0.18 l -0.73,6.258 c 1.87,1.5 2.96,3.903 2.65,6.449 -0.45,3.934 -4.02,6.754 -7.95,6.293 -3.93,-0.472 -6.74,-4.031 -6.28,-7.961 0.3,-2.539 1.89,-4.609 4.05,-5.64 l 0.73,-6.238 c -7.14,-1.161 -14.03,-3.321 -20.59,-6.461 l 3.27,-6.84 c 9.33,4.48 19.41,6.73 29.95,6.73 4.96,0 9.93,-0.531 14.74,-1.57 l 1.62,7.41 c -5.36,1.149 -10.85,1.75 -16.36,1.75"
         style="fill:#1e222c;fill-opacity:1;fill-rule:nonzero;stroke:none"
         id="path398" />
      <path
         d="m 2721.94,342.891 c 3.31,0.41 5.67,3.418 5.26,6.73 -0.4,3.309 -3.42,5.649 -6.72,5.25 -3.1,-0.379 -5.35,-3.031 -5.3,-6.082 l -4.16,-3.629 c -4.18,4.289 -8.9,8.121 -14.09,11.379 l -4.03,-6.398 c 11.34,-7.149 20.21,-17.27 25.64,-29.262 l 6.9,3.121 c -2.51,5.551 -5.67,10.73 -9.42,15.449 l 4.02,3.52 1.9,-0.078"
         style="fill:#1e222c;fill-opacity:1;fill-rule:nonzero;stroke:none"
         id="path400" />
      <path
         d="m 2650.44,266.281 c -3.86,-0.242 -7.74,-0.34 -11.57,-0.34 -8.8,0 -17.33,0.598 -24.78,1.778 -3.9,0.633 -8.46,1.562 -12.7,2.922 10.46,-18.602 30.69,-31.25 53.88,-31.25 28.56,0 52.62,19.16 59.5,45.039 -6.82,-4.489 -15.06,-8.25 -24.59,-11.231 -11.79,-3.668 -25.54,-6.058 -39.74,-6.918"
         style="fill:#1e222c;fill-opacity:1;fill-rule:nonzero;stroke:none"
         id="path402" />
      <path
         d="m 2681.7,297.141 c -7.5,0 -13.6,6.101 -13.6,13.601 0,7.5 6.1,13.61 13.6,13.61 7.5,0 13.6,-6.11 13.6,-13.61 0,-7.5 -6.1,-13.601 -13.6,-13.601 z m -47.37,-9.082 c -10.21,0 -18.5,8.3 -18.5,18.492 0,10.211 8.29,18.5 18.5,18.5 10.19,0 18.49,-8.289 18.49,-18.5 0,-10.192 -8.3,-18.492 -18.49,-18.492 z m 21.59,65.14 c -33.53,0 -60.79,-26.66 -60.79,-59.429 0,-4.258 0.46,-8.489 1.36,-12.622 6.74,-4.816 27.06,-8.886 53.48,-7.296 28.79,1.73 52.97,9.57 66.72,21.578 -0.05,1.949 -0.21,3.91 -0.45,5.82 -3.8,29.621 -29.74,51.949 -60.32,51.949"
         style="fill:#1e222c;fill-opacity:1;fill-rule:nonzero;stroke:none"
         id="path404" />
      <path
         d="m 2815.96,334.531 c -2.95,1.16 -8.06,3.09 -13.83,2.367 -5.51,-0.679 -8.44,-3.386 -8.44,-10.058 v -8.66 h 22.28 v -17.168 h -22.28 v -54.551 h -19.31 v 54.551 h -13.4 v 17.168 h 13.4 v 8.879 c 0,16.812 8.95,27.832 25.68,27.832 6.42,0 11.57,-1.219 15.9,-3.082 v -17.278"
         style="fill:#1e222c;fill-opacity:1;fill-rule:nonzero;stroke:none"
         id="path406" />
      <path
         d="m 2862.98,301.211 c -1.77,0.301 -3.58,0.469 -5.27,0.469 -8.95,0 -15.09,-5.481 -15.09,-16.141 v -39.078 h -19.32 v 71.719 h 18.73 v -7.848 c 4.51,6.738 11.4,9.777 20.21,9.777 4.14,0 8.47,-1.277 10.93,-3.367 l -10.19,-15.531"
         style="fill:#1e222c;fill-opacity:1;fill-rule:nonzero;stroke:none"
         id="path408" />
      <path
         d="m 2888.51,289.09 h 31.75 c -1.77,9.18 -7.33,14.359 -15.62,14.359 -9.1,0 -14.43,-5.469 -16.13,-14.359 z m 51.14,-6.66 c 0,-2.219 -0.15,-4.879 -0.37,-6.508 h -50.84 c 2.07,-10.363 9.32,-14.883 18.43,-14.883 6.21,0 12.94,2.512 18.13,6.883 l 11.32,-12.43 c -8.14,-7.472 -18.51,-10.883 -30.57,-10.883 -21.98,0 -37.22,14.95 -37.22,37.532 0,22.57 14.8,37.968 36.26,37.968 20.65,0 34.79,-15.32 34.86,-37.679"
         style="fill:#1e222c;fill-opacity:1;fill-rule:nonzero;stroke:none"
         id="path410" />
      <path
         d="m 2965.04,289.09 h 31.76 c -1.78,9.18 -7.34,14.359 -15.63,14.359 -9.1,0 -14.43,-5.469 -16.13,-14.359 z m 51.14,-6.66 c 0,-2.219 -0.14,-4.879 -0.37,-6.508 h -50.84 c 2.07,-10.363 9.32,-14.883 18.43,-14.883 6.21,0 12.95,2.512 18.13,6.883 l 11.32,-12.43 c -8.14,-7.472 -18.5,-10.883 -30.56,-10.883 -21.99,0 -37.23,14.95 -37.23,37.532 0,22.57 14.8,37.968 36.26,37.968 20.65,0 34.79,-15.32 34.86,-37.679"
         style="fill:#1e222c;fill-opacity:1;fill-rule:nonzero;stroke:none"
         id="path412" />
      <path
         d="m 3042.87,282.352 c 0,-11.313 7.48,-19.75 18.43,-19.75 11.4,0 18.5,8.808 18.5,19.75 0,10.957 -7.1,19.769 -18.5,19.769 -10.95,0 -18.43,-8.441 -18.43,-19.769 z m 56.77,0 c 0,-21.532 -14.95,-37.743 -34.71,-37.743 -9.63,0 -16.43,3.782 -21.09,9.332 v -37.082 h -19.25 V 318.18 h 18.88 v -7.918 c 4.66,5.84 11.54,9.847 21.38,9.847 19.84,0 34.79,-16.207 34.79,-37.757"
         style="fill:#1e222c;fill-opacity:1;fill-rule:nonzero;stroke:none"
         id="path414" />
      <path
         d="m 3128.09,246.461 h -19.32 v 71.719 h 19.32 z m 2.58,95.18 c 0,-6.95 -5.4,-12.282 -12.35,-12.282 -6.96,0 -12.29,5.332 -12.29,12.282 0,6.961 5.33,12.429 12.29,12.429 6.95,0 12.35,-5.468 12.35,-12.429"
         style="fill:#1e222c;fill-opacity:1;fill-rule:nonzero;stroke:none"
         id="path416" />
      <path
         d="m 3160.32,292.652 27.01,25.528 h 23.7 l -34.8,-33.75 35.01,-37.969 h -23.76 l -27.16,29.019 v -29.019 h -19.31 v 106.578 h 19.31 v -60.387"
         style="fill:#1e222c;fill-opacity:1;fill-rule:nonzero;stroke:none"
         id="path418" />
      <path
         d="m 1844.13,266.301 v 32.078 c -3.96,6.152 -12.46,11.422 -21.24,11.422 -14.21,0 -22.71,-11.711 -22.71,-27.391 0,-15.668 8.5,-27.238 22.71,-27.238 8.78,0 17.28,4.98 21.24,11.129 z m 0,-19.192 v 10.551 c -5.28,-7.18 -13.92,-12.308 -23.88,-12.308 -18.46,0 -31.5,14.058 -31.5,37.058 0,22.559 12.9,37.211 31.5,37.211 9.52,0 18.16,-4.691 23.88,-12.449 v 37.637 h 10.98 v -97.7 h -10.98"
         style="fill:#1e222c;fill-opacity:1;fill-rule:nonzero;stroke:none"
         id="path420" />
      <path
         d="m 1904.03,310.539 c -15.08,0 -22.56,-12.75 -23.14,-23.59 h 46.43 c -0.14,10.551 -7.17,23.59 -23.29,23.59 z m -34.71,-27.98 c 0,20.511 14.64,37.062 34.86,37.062 21.39,0 33.98,-16.699 33.98,-37.941 v -2.778 h -57.27 c 0.88,-13.332 10.25,-24.472 25.49,-24.472 8.05,0 16.26,3.23 21.82,8.941 l 5.28,-7.18 c -7.03,-7.031 -16.56,-10.839 -28.13,-10.839 -20.95,0 -36.03,15.089 -36.03,37.207"
         style="fill:#1e222c;fill-opacity:1;fill-rule:nonzero;stroke:none"
         id="path422" />
      <path
         d="m 1946.07,256.48 5.71,7.911 c 4.69,-5.422 13.63,-10.102 23.29,-10.102 10.84,0 16.7,5.121 16.7,12.16 0,17.133 -43.8,6.59 -43.8,32.813 0,10.976 9.53,20.359 26.37,20.359 12.01,0 20.51,-4.539 26.22,-10.25 l -5.13,-7.621 c -4.24,5.121 -12.01,8.93 -21.09,8.93 -9.67,0 -15.67,-4.828 -15.67,-11.129 0,-15.531 43.79,-5.27 43.79,-32.809 0,-11.871 -9.52,-21.39 -27.83,-21.39 -11.57,0 -21.38,3.519 -28.56,11.128"
         style="fill:#1e222c;fill-opacity:1;fill-rule:nonzero;stroke:none"
         id="path424" />
      <path
         d="m 2016.67,247.109 v 70.75 h 10.99 v -70.75 z m -1.9,88.18 c 0,4.102 3.37,7.473 7.32,7.473 4.11,0 7.47,-3.371 7.47,-7.473 0,-4.098 -3.36,-7.32 -7.47,-7.32 -3.95,0 -7.32,3.222 -7.32,7.32"
         style="fill:#1e222c;fill-opacity:1;fill-rule:nonzero;stroke:none"
         id="path426" />
      <path
         d="m 2097.08,267.469 v 30.91 c -3.8,6.152 -12.3,11.422 -21.08,11.422 -14.22,0 -22.71,-11.27 -22.71,-26.949 0,-15.532 8.49,-26.954 22.71,-26.954 8.78,0 17.28,5.422 21.08,11.571 z m -51.26,-38.52 5.57,8.199 c 5.86,-7.027 12.89,-9.668 22.99,-9.668 11.72,0 22.7,5.711 22.7,21.239 v 10.113 c -5.12,-7.184 -13.76,-12.602 -23.73,-12.602 -18.45,0 -31.48,13.77 -31.48,36.622 0,22.707 12.88,36.769 31.48,36.769 9.53,0 18.03,-4.691 23.73,-12.449 v 10.687 h 10.99 V 249.16 c 0,-23.441 -16.4,-30.762 -33.69,-30.762 -12.01,0 -20.21,2.344 -28.56,10.551"
         style="fill:#1e222c;fill-opacity:1;fill-rule:nonzero;stroke:none"
         id="path428" />
      <path
         d="m 2174.13,247.109 v 46.289 c 0,12.454 -6.29,16.403 -15.81,16.403 -8.65,0 -16.86,-5.27 -20.95,-10.981 v -51.711 h -10.99 v 70.75 h 10.99 v -10.25 c 4.98,5.86 14.64,12.012 25.19,12.012 14.79,0 22.56,-7.473 22.56,-22.851 v -49.661 h -10.99"
         style="fill:#1e222c;fill-opacity:1;fill-rule:nonzero;stroke:none"
         id="path430" />
      <path
         d="m 2234.04,310.539 c -15.08,0 -22.56,-12.75 -23.14,-23.59 h 46.43 c -0.15,10.551 -7.18,23.59 -23.29,23.59 z m -34.71,-27.98 c 0,20.511 14.64,37.062 34.86,37.062 21.38,0 33.98,-16.699 33.98,-37.941 v -2.778 h -57.27 c 0.88,-13.332 10.25,-24.472 25.49,-24.472 8.05,0 16.25,3.23 21.82,8.941 l 5.28,-7.18 c -7.03,-7.031 -16.56,-10.839 -28.13,-10.839 -20.95,0 -36.03,15.089 -36.03,37.207"
         style="fill:#1e222c;fill-opacity:1;fill-rule:nonzero;stroke:none"
         id="path432" />
      <path
         d="m 2333.5,266.301 v 32.078 c -3.96,6.152 -12.45,11.422 -21.24,11.422 -14.21,0 -22.7,-11.711 -22.7,-27.391 0,-15.668 8.49,-27.238 22.7,-27.238 8.79,0 17.28,4.98 21.24,11.129 z m 0,-19.192 v 10.551 c -5.27,-7.18 -13.92,-12.308 -23.88,-12.308 -18.45,0 -31.49,14.058 -31.49,37.058 0,22.559 12.89,37.211 31.49,37.211 9.52,0 18.17,-4.691 23.88,-12.449 v 37.637 h 10.99 v -97.7 h -10.99"
         style="fill:#1e222c;fill-opacity:1;fill-rule:nonzero;stroke:none"
         id="path434" />
      <path
         d="m 2429,255.172 c 14.35,0 22.85,11.57 22.85,27.238 0,15.68 -8.5,27.391 -22.85,27.391 -8.64,0 -17.29,-5.27 -21.09,-11.422 v -32.078 c 3.8,-6.149 12.45,-11.129 21.09,-11.129 z m -32.08,-8.063 v 97.7 h 10.99 v -37.637 c 5.71,7.758 14.2,12.449 23.87,12.449 18.46,0 31.5,-14.652 31.5,-37.211 0,-23 -13.04,-37.058 -31.5,-37.058 -9.96,0 -18.6,5.128 -23.87,12.308 v -10.551 h -10.99"
         style="fill:#1e222c;fill-opacity:1;fill-rule:nonzero;stroke:none"
         id="path436" />
      <path
         d="m 2475.28,229.379 c 1.61,-0.731 4.26,-1.168 6.01,-1.168 4.83,0 8.06,1.609 10.55,7.469 l 4.69,10.699 -29.6,71.48 h 11.87 l 23.58,-58.007 23.44,58.007 h 12.01 l -35.45,-85.109 c -4.25,-10.25 -11.42,-14.211 -20.8,-14.352 -2.34,0 -6,0.442 -8.05,1.024 l 1.75,9.957"
         style="fill:#1e222c;fill-opacity:1;fill-rule:nonzero;stroke:none"
         id="path438" />
    </g>
  </g>
</svg>
