<svg id="Layer_1" data-name="Layer 1" xmlns="http://www.w3.org/2000/svg" viewBox="0 0 122.11 122.88"><defs><style>.cls-1{fill-rule:evenodd;}</style></defs><title>female-doctor</title><path class="cls-1" d="M72.66,71.81c-7.37,4.77-17.73,3.11-25-1.82L59.46,92.12,72.65,71.88v-.07Zm-61.91-.4C21.88,70.54,26,62.57,27.33,51.05c2.09-17.62-.81-40.29,21.27-48.86C66.13-4.62,88.8,4.54,91.27,28.81c-.1,16.48,4.72,41.4,20.08,42.6C109.57,76.22,97.41,80,87.19,79.9l2.14.44.27.06.52.11a48.94,48.94,0,0,1,.87,11c0,1.08-.07,1.39-.09,1.76a9.88,9.88,0,0,0-4.84,16.64,9.4,9.4,0,0,0,13,.78,9.85,9.85,0,0,0,3.81-7.79c0-4.53-2.8-7.87-7-9.56-.62-.25-.43-.63-.4-1.72a61.69,61.69,0,0,0-.47-10.06c9.33,2.19,15.75,4.8,20,9.53,5.1,5.63,7,16.19,7,30.11a1.67,1.67,0,0,1-1.67,1.66H1.66A1.66,1.66,0,0,1,0,121.22C0,107.67,1.81,97.1,6.61,91.43S19.06,83,30.72,80.75l1.4-.25c-9.27-.13-19.59-4.28-21.37-9.09Zm62.6-3.07,0-.09-.5.42.46-.33ZM37.75,80a24.82,24.82,0,0,1-4.29.47A33.79,33.79,0,0,0,32.85,85c-1.17.84-4.05,1.84-5,2.94a42.14,42.14,0,0,0-4.28,6.14,2.33,2.33,0,0,0-.3,1.13c0,.31.33.63.18.9l-.21.41c-2.87,5.61-4.75,11.78-3.86,14.44a4.06,4.06,0,0,0,2.9,2.55,13.77,13.77,0,0,0,3.5.45c.35,0,.7,0,1,0a4.18,4.18,0,0,0,1.32.79,2.92,2.92,0,0,0,1,.19A2.79,2.79,0,0,0,32,112.12a3,3,0,0,0-2.9-2.94c-1,0-2.48.51-2.48,1.53v0l0,.07-.71,0a9.82,9.82,0,0,1-2.59-.31c-.49-.13-.78-.33-.85-.53-.64-1.86,1.12-7,3.66-12,.1-.2.2-.4.31-.6a2.25,2.25,0,0,0,1.16-1,36.53,36.53,0,0,1,3.78-5.45A7.86,7.86,0,0,1,35.06,89h.23a12,12,0,0,1,1.92,1.72,34.25,34.25,0,0,1,4,5.57c.25.45.87.55,1.14,1,2.93,4.75,4.59,10.19,4.19,12.27-.08.49-.49.78-1.12,1a11.79,11.79,0,0,1-2.9.4l-.12-.21v0c0-1-1.46-1.49-2.48-1.53A3,3,0,0,0,37,112.12a2.78,2.78,0,0,0,2.78,2.79,3,3,0,0,0,1-.19,5,5,0,0,0,.73-.36,3.13,3.13,0,0,0,.4-.28h.39a13.69,13.69,0,0,0,4.08-.57,4.29,4.29,0,0,0,3.21-3.39c.49-2.7-1.48-8.68-4.38-14.09a2.26,2.26,0,0,0,.19-.89A2.35,2.35,0,0,0,45.12,94a38.83,38.83,0,0,0-4.55-6.32c-.92-1-2.94-1.34-3.16-2.71A12.78,12.78,0,0,1,37.75,80ZM74.61,63.84a43,43,0,0,0,8.12-11.69,45.3,45.3,0,0,0,0-19.16c-6.44-2.87-10.65-9.17-12.81-18.64-2.58,18-25.62,17.26-31.41,20.54,0,8.19-1.12,13.92,2.63,21.39h0a46.76,46.76,0,0,0,2.61,4.55,23.37,23.37,0,0,0,2.56,3.43c7.74,8,21,7,28.3-.43Zm18.29,34a5.3,5.3,0,1,1-5.3,5.3,5.3,5.3,0,0,1,5.3-5.3Z"/></svg>